solid filament switch
facet normal 6.955816040806128e-16 1.4015961402190466e-16 -1.0
  outer loop
    vertex -17.461274994825423 139.2769560753547 -12.83999999999995
    vertex -40.53743086411268 132.67203274482404 -12.839999999999955
    vertex -40.53743086411268 139.2769560753547 -12.839999999999955
  endloop
endfacet
facet normal 6.955816040806128e-16 1.4015961402190466e-16 -1.0
  outer loop
    vertex -40.53743086411268 132.67203274482404 -12.839999999999955
    vertex -83.85811822065381 102.26149208558292 -12.839999999999995
    vertex -83.85811822065381 132.67203274482404 -12.839999999999995
  endloop
endfacet
facet normal 6.955816040806128e-16 1.4015961402190466e-16 -1.0
  outer loop
    vertex -83.85811822065381 102.26149208558292 -12.839999999999995
    vertex -40.53743086411268 132.67203274482404 -12.839999999999955
    vertex -17.461274994825423 102.26149208558292 -12.83999999999995
  endloop
endfacet
facet normal 6.955816040806128e-16 1.4015961402190466e-16 -1.0
  outer loop
    vertex -17.461274994825423 102.26149208558292 -12.83999999999995
    vertex -40.53743086411268 132.67203274482404 -12.839999999999955
    vertex -17.461274994825423 139.2769560753547 -12.83999999999995
  endloop
endfacet
facet normal 0.0 1.0 0.0
  outer loop
    vertex -83.85811822065385 132.67203274482404 -10.83999999999995
    vertex -40.53743086411268 132.67203274482404 -12.839999999999955
    vertex -83.85811822065381 132.67203274482404 -12.839999999999995
  endloop
endfacet
facet normal 0.0 1.0 0.0
  outer loop
    vertex -40.53743086411268 132.67203274482404 -12.839999999999955
    vertex -83.85811822065385 132.67203274482404 -10.83999999999995
    vertex -40.537430864112615 132.67203274482404 -10.839999999999947
  endloop
endfacet
facet normal -1.0 0.0 3.383959779057464e-14
  outer loop
    vertex -40.537430864112615 139.2769560753547 -10.839999999999947
    vertex -40.53743086411268 132.67203274482404 -12.839999999999955
    vertex -40.537430864112615 132.67203274482404 -10.839999999999947
  endloop
endfacet
facet normal -1.0 0.0 3.383959779057464e-14
  outer loop
    vertex -40.53743086411268 132.67203274482404 -12.839999999999955
    vertex -40.537430864112615 139.2769560753547 -10.839999999999947
    vertex -40.53743086411268 139.2769560753547 -12.839999999999955
  endloop
endfacet
facet normal 0.0 1.0 0.0
  outer loop
    vertex -40.537430864112615 139.2769560753547 -10.839999999999947
    vertex -17.461274994825423 139.2769560753547 -12.83999999999995
    vertex -40.53743086411268 139.2769560753547 -12.839999999999955
  endloop
endfacet
facet normal 0.0 1.0 0.0
  outer loop
    vertex -17.461274994825423 139.2769560753547 -12.83999999999995
    vertex -40.537430864112615 139.2769560753547 -10.839999999999947
    vertex -17.461274994825402 139.2769560753547 -10.840000000000002
  endloop
endfacet
facet normal 1.0 0.0 -1.127986593019188e-14
  outer loop
    vertex -17.461274994825423 139.2769560753547 -12.83999999999995
    vertex -17.461274994825402 102.26149208558292 -10.840000000000002
    vertex -17.461274994825423 102.26149208558292 -12.83999999999995
  endloop
endfacet
facet normal 1.0 0.0 -1.127986593019188e-14
  outer loop
    vertex -17.461274994825402 102.26149208558292 -10.840000000000002
    vertex -17.461274994825423 139.2769560753547 -12.83999999999995
    vertex -17.461274994825402 139.2769560753547 -10.840000000000002
  endloop
endfacet
facet normal 0.0 -1.0 0.0
  outer loop
    vertex -17.461274994825423 102.26149208558292 -12.83999999999995
    vertex -83.85811822065385 102.26149208558292 -10.83999999999995
    vertex -83.85811822065381 102.26149208558292 -12.839999999999995
  endloop
endfacet
facet normal 0.0 -1.0 0.0
  outer loop
    vertex -83.85811822065385 102.26149208558292 -10.83999999999995
    vertex -17.461274994825423 102.26149208558292 -12.83999999999995
    vertex -17.461274994825402 102.26149208558292 -10.840000000000002
  endloop
endfacet
facet normal -1.0 0.0 -2.255973186038268e-14
  outer loop
    vertex -83.85811822065385 132.67203274482404 -10.83999999999995
    vertex -83.85811822065381 102.26149208558292 -12.839999999999995
    vertex -83.85811822065385 102.26149208558292 -10.83999999999995
  endloop
endfacet
facet normal -1.0 0.0 -2.255973186038268e-14
  outer loop
    vertex -83.85811822065381 102.26149208558292 -12.839999999999995
    vertex -83.85811822065385 132.67203274482404 -10.83999999999995
    vertex -83.85811822065381 132.67203274482404 -12.839999999999995
  endloop
endfacet
facet normal 7.070801020417287e-16 -5.016341218060259e-16 1.0
  outer loop
    vertex -83.85811822065385 102.26149208558292 -10.83999999999995
    vertex -81.75811822065351 104.36149208558275 -10.839999999999902
    vertex -83.85811822065385 132.67203274482404 -10.83999999999995
  endloop
endfacet
facet normal 7.070801020417287e-16 -5.016341218060259e-16 1.0
  outer loop
    vertex -81.75811822065351 104.36149208558275 -10.839999999999902
    vertex -83.85811822065385 102.26149208558292 -10.83999999999995
    vertex -17.461274994825402 102.26149208558292 -10.840000000000002
  endloop
endfacet
facet normal 7.070801020417287e-16 -5.016341218060259e-16 1.0
  outer loop
    vertex -81.75811822065351 104.36149208558275 -10.839999999999902
    vertex -17.461274994825402 102.26149208558292 -10.840000000000002
    vertex -19.561274994825464 104.36149208558275 -10.839999999999968
  endloop
endfacet
facet normal 7.070801020417287e-16 -5.016341218060259e-16 1.0
  outer loop
    vertex -19.561274994825464 104.36149208558275 -10.839999999999968
    vertex -17.461274994825402 102.26149208558292 -10.840000000000002
    vertex -19.561274994825464 130.153496744824 -10.839999999999968
  endloop
endfacet
facet normal 7.070801020417287e-16 -5.016341218060259e-16 1.0
  outer loop
    vertex -21.561274994825414 106.36149208558275 -10.839999999999955
    vertex -79.75811822065397 128.572032744824 -10.840000000000023
    vertex -79.75811822065397 106.36149208558275 -10.840000000000023
  endloop
endfacet
facet normal 7.070801020417287e-16 -5.016341218060259e-16 1.0
  outer loop
    vertex -79.75811822065397 128.572032744824 -10.840000000000023
    vertex -21.561274994825414 106.36149208558275 -10.839999999999955
    vertex -68.85811822065367 128.572032744824 -10.839999999999899
  endloop
endfacet
facet normal 7.070801020417287e-16 -5.016341218060259e-16 1.0
  outer loop
    vertex -68.85811822065367 128.572032744824 -10.839999999999899
    vertex -21.561274994825414 106.36149208558275 -10.839999999999955
    vertex -68.85811822065367 130.57203274482396 -10.839999999999899
  endloop
endfacet
facet normal 7.070801020417287e-16 -5.016341218060259e-16 1.0
  outer loop
    vertex -68.85811822065367 130.57203274482396 -10.839999999999899
    vertex -21.561274994825414 106.36149208558275 -10.839999999999955
    vertex -40.537430864112615 132.67203274482404 -10.839999999999947
  endloop
endfacet
facet normal 7.070801020417287e-16 -5.016341218060259e-16 1.0
  outer loop
    vertex -40.537430864112615 132.67203274482404 -10.839999999999947
    vertex -21.561274994825414 106.36149208558275 -10.839999999999955
    vertex -40.537430864112615 139.2769560753547 -10.839999999999947
  endloop
endfacet
facet normal 7.070801020417287e-16 -5.016341218060259e-16 1.0
  outer loop
    vertex -40.537430864112615 139.2769560753547 -10.839999999999947
    vertex -21.561274994825414 106.36149208558275 -10.839999999999955
    vertex -21.561274994825414 130.153496744824 -10.839999999999955
  endloop
endfacet
facet normal 7.070801020417287e-16 -5.016341218060259e-16 1.0
  outer loop
    vertex -40.537430864112615 139.2769560753547 -10.839999999999947
    vertex -21.561274994825414 130.153496744824 -10.839999999999955
    vertex -17.461274994825402 139.2769560753547 -10.840000000000002
  endloop
endfacet
facet normal 7.070801020417287e-16 -5.016341218060259e-16 1.0
  outer loop
    vertex -17.461274994825402 139.2769560753547 -10.840000000000002
    vertex -21.561274994825414 130.153496744824 -10.839999999999955
    vertex -19.561274994825464 130.153496744824 -10.839999999999968
  endloop
endfacet
facet normal 7.070801020417287e-16 -5.016341218060259e-16 1.0
  outer loop
    vertex -17.461274994825402 139.2769560753547 -10.840000000000002
    vertex -19.561274994825464 130.153496744824 -10.839999999999968
    vertex -17.461274994825402 102.26149208558292 -10.840000000000002
  endloop
endfacet
facet normal 7.070801020417287e-16 -5.016341218060259e-16 1.0
  outer loop
    vertex -83.85811822065385 132.67203274482404 -10.83999999999995
    vertex -81.75811822065351 130.57203274482396 -10.839999999999902
    vertex -40.537430864112615 132.67203274482404 -10.839999999999947
  endloop
endfacet
facet normal 7.070801020417287e-16 -5.016341218060259e-16 1.0
  outer loop
    vertex -81.75811822065351 130.57203274482396 -10.839999999999902
    vertex -83.85811822065385 132.67203274482404 -10.83999999999995
    vertex -81.75811822065351 104.36149208558275 -10.839999999999902
  endloop
endfacet
facet normal 7.070801020417287e-16 -5.016341218060259e-16 1.0
  outer loop
    vertex -40.537430864112615 132.67203274482404 -10.839999999999947
    vertex -81.75811822065351 130.57203274482396 -10.839999999999902
    vertex -68.85811822065367 130.57203274482396 -10.839999999999899
  endloop
endfacet
facet normal 1.0 0.0 7.519910620127642e-15
  outer loop
    vertex -19.561274994825464 130.153496744824 -10.839999999999968
    vertex -19.561274994825485 104.36149208558275 -7.839999999999933
    vertex -19.561274994825464 104.36149208558275 -10.839999999999968
  endloop
endfacet
facet normal 1.0 0.0 7.519910620127642e-15
  outer loop
    vertex -19.561274994825485 104.36149208558275 -7.839999999999933
    vertex -19.561274994825464 130.153496744824 -10.839999999999968
    vertex -19.561274994825485 130.153496744824 -7.839999999999933
  endloop
endfacet
facet normal 0.0 -1.0 0.0
  outer loop
    vertex -19.561274994825485 104.36149208558275 -7.839999999999933
    vertex -81.75811822065351 104.36149208558275 -10.839999999999902
    vertex -19.561274994825464 104.36149208558275 -10.839999999999968
  endloop
endfacet
facet normal 0.0 -1.0 0.0
  outer loop
    vertex -81.75811822065351 104.36149208558275 -10.839999999999902
    vertex -19.561274994825485 104.36149208558275 -7.839999999999933
    vertex -81.75811822065364 104.36149208558275 -7.839999999999883
  endloop
endfacet
facet normal 0.0 1.0 0.0
  outer loop
    vertex -21.561274994825414 130.153496744824 -10.839999999999955
    vertex -19.561274994825485 130.153496744824 -7.839999999999933
    vertex -19.561274994825464 130.153496744824 -10.839999999999968
  endloop
endfacet
facet normal 0.0 1.0 0.0
  outer loop
    vertex -19.561274994825485 130.153496744824 -7.839999999999933
    vertex -21.561274994825414 130.153496744824 -10.839999999999955
    vertex -21.561274994825414 130.153496744824 -7.840000000000001
  endloop
endfacet
facet normal -1.0 0.0 0.0
  outer loop
    vertex -21.561274994825414 130.153496744824 -7.840000000000001
    vertex -21.561274994825414 106.36149208558275 -10.839999999999955
    vertex -21.561274994825414 106.36149208558275 -7.840000000000001
  endloop
endfacet
facet normal -1.0 0.0 0.0
  outer loop
    vertex -21.561274994825414 106.36149208558275 -10.839999999999955
    vertex -21.561274994825414 130.153496744824 -7.840000000000001
    vertex -21.561274994825414 130.153496744824 -10.839999999999955
  endloop
endfacet
facet normal 0.0 1.0 0.0
  outer loop
    vertex -79.75811822065366 106.36149208558275 -7.840000000000015
    vertex -21.561274994825414 106.36149208558275 -10.839999999999955
    vertex -79.75811822065397 106.36149208558275 -10.840000000000023
  endloop
endfacet
facet normal 0.0 1.0 0.0
  outer loop
    vertex -21.561274994825414 106.36149208558275 -10.839999999999955
    vertex -79.75811822065366 106.36149208558275 -7.840000000000015
    vertex -21.561274994825414 106.36149208558275 -7.840000000000001
  endloop
endfacet
facet normal -1.0 0.0 -4.5119463720766056e-14
  outer loop
    vertex -81.75811822065364 130.57203274482396 -7.839999999999883
    vertex -81.75811822065351 104.36149208558275 -10.839999999999902
    vertex -81.75811822065364 104.36149208558275 -7.839999999999883
  endloop
endfacet
facet normal -1.0 0.0 -4.5119463720766056e-14
  outer loop
    vertex -81.75811822065351 104.36149208558275 -10.839999999999902
    vertex -81.75811822065364 130.57203274482396 -7.839999999999883
    vertex -81.75811822065351 130.57203274482396 -10.839999999999902
  endloop
endfacet
facet normal 0.0 1.0 0.0
  outer loop
    vertex -81.75811822065364 130.57203274482396 -7.839999999999883
    vertex -68.85811822065367 130.57203274482396 -10.839999999999899
    vertex -81.75811822065351 130.57203274482396 -10.839999999999902
  endloop
endfacet
facet normal 0.0 1.0 0.0
  outer loop
    vertex -68.85811822065367 130.57203274482396 -10.839999999999899
    vertex -81.75811822065364 130.57203274482396 -7.839999999999883
    vertex -68.85811822065384 130.57203274482396 -7.8399999999999475
  endloop
endfacet
facet normal 1.0 0.0 5.2639374340894934e-14
  outer loop
    vertex -68.85811822065367 130.57203274482396 -10.839999999999899
    vertex -68.85811822065384 128.572032744824 -7.8399999999999475
    vertex -68.85811822065367 128.572032744824 -10.839999999999899
  endloop
endfacet
facet normal 1.0 0.0 5.2639374340894934e-14
  outer loop
    vertex -68.85811822065384 128.572032744824 -7.8399999999999475
    vertex -68.85811822065367 130.57203274482396 -10.839999999999899
    vertex -68.85811822065384 130.57203274482396 -7.8399999999999475
  endloop
endfacet
facet normal 0.0 -1.0 0.0
  outer loop
    vertex -68.85811822065367 128.572032744824 -10.839999999999899
    vertex -79.75811822065366 128.572032744824 -7.840000000000015
    vertex -79.75811822065397 128.572032744824 -10.840000000000023
  endloop
endfacet
facet normal 0.0 -1.0 0.0
  outer loop
    vertex -79.75811822065366 128.572032744824 -7.840000000000015
    vertex -68.85811822065367 128.572032744824 -10.839999999999899
    vertex -68.85811822065384 128.572032744824 -7.8399999999999475
  endloop
endfacet
facet normal 1.0 0.0 -1.0527874868178786e-13
  outer loop
    vertex -79.75811822065397 128.572032744824 -10.840000000000023
    vertex -79.75811822065366 106.36149208558275 -7.840000000000015
    vertex -79.75811822065397 106.36149208558275 -10.840000000000023
  endloop
endfacet
facet normal 1.0 0.0 -1.0527874868178786e-13
  outer loop
    vertex -79.75811822065366 106.36149208558275 -7.840000000000015
    vertex -79.75811822065397 128.572032744824 -10.840000000000023
    vertex -79.75811822065366 128.572032744824 -7.840000000000015
  endloop
endfacet
facet normal 3.3919102573933544e-16 -1.1889704231158458e-17 1.0
  outer loop
    vertex -81.75811822065364 130.57203274482396 -7.839999999999883
    vertex -79.75811822065366 128.572032744824 -7.840000000000015
    vertex -68.85811822065384 130.57203274482396 -7.8399999999999475
  endloop
endfacet
facet normal 3.3919102573933544e-16 -1.1889704231158458e-17 1.0
  outer loop
    vertex -79.75811822065366 128.572032744824 -7.840000000000015
    vertex -81.75811822065364 130.57203274482396 -7.839999999999883
    vertex -79.75811822065366 106.36149208558275 -7.840000000000015
  endloop
endfacet
facet normal 3.3919102573933544e-16 -1.1889704231158458e-17 1.0
  outer loop
    vertex -68.85811822065384 130.57203274482396 -7.8399999999999475
    vertex -79.75811822065366 128.572032744824 -7.840000000000015
    vertex -68.85811822065384 128.572032744824 -7.8399999999999475
  endloop
endfacet
facet normal 3.3919102573933544e-16 -1.1889704231158458e-17 1.0
  outer loop
    vertex -81.75811822065364 104.36149208558275 -7.839999999999883
    vertex -79.75811822065366 106.36149208558275 -7.840000000000015
    vertex -81.75811822065364 130.57203274482396 -7.839999999999883
  endloop
endfacet
facet normal 3.3919102573933544e-16 -1.1889704231158458e-17 1.0
  outer loop
    vertex -79.75811822065366 106.36149208558275 -7.840000000000015
    vertex -81.75811822065364 104.36149208558275 -7.839999999999883
    vertex -19.561274994825485 104.36149208558275 -7.839999999999933
  endloop
endfacet
facet normal 3.3919102573933544e-16 -1.1889704231158458e-17 1.0
  outer loop
    vertex -79.75811822065366 106.36149208558275 -7.840000000000015
    vertex -19.561274994825485 104.36149208558275 -7.839999999999933
    vertex -21.561274994825414 106.36149208558275 -7.840000000000001
  endloop
endfacet
facet normal 3.3919102573933544e-16 -1.1889704231158458e-17 1.0
  outer loop
    vertex -21.561274994825414 106.36149208558275 -7.840000000000001
    vertex -19.561274994825485 104.36149208558275 -7.839999999999933
    vertex -21.561274994825414 130.153496744824 -7.840000000000001
  endloop
endfacet
facet normal 3.3919102573933544e-16 -1.1889704231158458e-17 1.0
  outer loop
    vertex -21.561274994825414 130.153496744824 -7.840000000000001
    vertex -19.561274994825485 104.36149208558275 -7.839999999999933
    vertex -19.561274994825485 130.153496744824 -7.839999999999933
  endloop
endfacet
endsolid filament switch
