solid P-Stop
facet normal 1.0 -1.62182200100774e-015 -1.36314536545598e-016
outer loop
vertex -3.1 5.41368816715138e-015 4.75
vertex -2.99437006149611 -0.802339039817809 6.75
vertex -2.99437006149611 -0.802339039817809 4.75
endloop
endfacet
facet normal 0.965925826289069 0.258819045102519 -1.28803384707914e-016
outer loop
vertex -2.99437006149611 -0.802339039817809 6.75
vertex -3.1 5.41368816715138e-015 4.75
vertex -3.1 5.39153874117719e-015 6.75
endloop
endfacet
facet normal 0.707106781186546 -0.707106781186548 -9.46700789111432e-017
outer loop
vertex -2.19203102167829 2.1920310216783 4.75
vertex -2.68467875173176 1.55 6.75
vertex -2.68467875173176 1.55 4.75
endloop
endfacet
facet normal 0.866025403784438 -0.500000000000001 -1.23589208047137e-016
outer loop
vertex -2.68467875173176 1.55 6.75
vertex -2.19203102167829 2.1920310216783 4.75
vertex -2.19203102167829 2.1920310216783 6.75
endloop
endfacet
facet normal 0.499999999999999 -0.866025403784439 -5.06134390431443e-017
outer loop
vertex -1.55 2.68467875173176 6.75
vertex -1.60000000000001 2.64631240233281 4.75
vertex -1.55 2.68467875173176 4.75
endloop
endfacet
facet normal 0.608761429008719 -0.793353340291236 -7.28328755220257e-017
outer loop
vertex -1.60000000000001 2.64631240233281 4.75
vertex -2.19203102167829 2.1920310216783 6.75
vertex -2.19203102167829 2.1920310216783 4.75
endloop
endfacet
facet normal 0.707106781186546 -0.707106781186549 -9.46700789111431e-017
outer loop
vertex -2.19203102167829 2.1920310216783 6.75
vertex -1.60000000000001 2.64631240233281 4.75
vertex -1.55 2.68467875173176 6.75
endloop
endfacet
facet normal 0.707106781186546 -0.707106781186549 -9.46700789111431e-017
outer loop
vertex -2.19203102167829 2.1920310216783 6.75
vertex -1.55 2.68467875173176 6.75
vertex -1.60000000000001 2.64631240233281 6.75
endloop
endfacet
facet normal 0.258819045102519 -0.965925826289069 -1.51666935352488e-017
outer loop
vertex -0.802339039817807 2.99437006149611 6.75
vertex -1.50000000000001 2.70538942985041 9.02389274415327e-017
vertex -0.802339039817808 2.99437006149611 0.0
endloop
endfacet
facet normal 0.382683432365088 -0.923879532511288 -2.75279925895381e-017
outer loop
vertex -1.50000000000001 2.70538942985041 9.02389274415327e-017
vertex -0.802339039817807 2.99437006149611 6.75
vertex -1.50000000000001 2.70538942985041 4.75
endloop
endfacet
facet normal 0.382683432365088 -0.923879532511288 -2.75279925895381e-017
outer loop
vertex -1.50000000000001 2.70538942985041 4.75
vertex -0.802339039817807 2.99437006149611 6.75
vertex -1.55 2.68467875173176 4.75
endloop
endfacet
facet normal 0.499999999999998 -0.86602540378444 -5.06134390431441e-017
outer loop
vertex -1.55 2.68467875173176 4.75
vertex -0.802339039817807 2.99437006149611 6.75
vertex -1.55 2.68467875173176 6.75
endloop
endfacet
facet normal 0.499999999999999 -0.866025403784439 -5.06134390431443e-017
outer loop
vertex -1.55 2.68467875173176 6.75
vertex -0.802339039817807 2.99437006149611 6.75
vertex -1.50000000000001 2.70538942985041 6.75
endloop
endfacet
facet normal 0.707106781186549 0.707106781186546 -8.97465298988008e-017
outer loop
vertex -2.1920310216783 -2.19203102167829 6.75
vertex -1.60000000000001 -2.64631240233281 4.75
vertex -2.1920310216783 -2.19203102167829 4.75
endloop
endfacet
facet normal 0.608761429008722 0.793353340291234 -7.65537369937772e-017
outer loop
vertex -1.60000000000001 -2.64631240233281 4.75
vertex -1.55 -2.68467875173176 6.75
vertex -1.55 -2.68467875173176 4.75
endloop
endfacet
facet normal 0.500000000000003 0.866025403784437 -2.76166355759376e-017
outer loop
vertex -1.55 -2.68467875173176 6.75
vertex -1.60000000000001 -2.64631240233281 4.75
vertex -2.1920310216783 -2.19203102167829 6.75
endloop
endfacet
facet normal 0.500000000000003 0.866025403784437 -2.76166355759376e-017
outer loop
vertex -1.55 -2.68467875173176 6.75
vertex -2.1920310216783 -2.19203102167829 6.75
vertex -1.60000000000001 -2.64631240233281 6.75
endloop
endfacet
facet normal 0.86602540378444 0.499999999999998 -1.12514495060043e-016
outer loop
vertex -2.68467875173176 -1.55 4.75
vertex -2.1920310216783 -2.19203102167829 6.75
vertex -2.1920310216783 -2.19203102167829 4.75
endloop
endfacet
facet normal 0.707106781186549 0.707106781186546 -8.97465298988008e-017
outer loop
vertex -2.1920310216783 -2.19203102167829 6.75
vertex -2.68467875173176 -1.55 4.75
vertex -2.68467875173176 -1.55 6.75
endloop
endfacet
facet normal 0.965925826289069 0.258819045102519 -1.28803384707914e-016
outer loop
vertex -2.99437006149611 -0.802339039817809 4.75
vertex -2.68467875173176 -1.55 6.75
vertex -2.68467875173176 -1.55 4.75
endloop
endfacet
facet normal 0.86602540378444 0.499999999999998 -1.12514495060043e-016
outer loop
vertex -2.68467875173176 -1.55 6.75
vertex -2.99437006149611 -0.802339039817809 4.75
vertex -2.99437006149611 -0.802339039817809 6.75
endloop
endfacet
facet normal 1.0 -1.62182200100774e-015 -1.36314536545598e-016
outer loop
vertex -3.1 5.41368816715138e-015 4.75
vertex -2.99437006149611 0.802339039817819 6.75
vertex -3.1 5.39153874117719e-015 6.75
endloop
endfacet
facet normal 0.965925826289068 -0.258819045102523 -1.34536077988122e-016
outer loop
vertex -2.99437006149611 0.802339039817819 6.75
vertex -3.1 5.41368816715138e-015 4.75
vertex -2.99437006149611 0.802339039817819 4.75
endloop
endfacet
facet normal 0.866025403784438 -0.500000000000001 -1.23589208047137e-016
outer loop
vertex -2.68467875173176 1.55 4.75
vertex -2.99437006149611 0.802339039817819 6.75
vertex -2.99437006149611 0.802339039817819 4.75
endloop
endfacet
facet normal 0.965925826289068 -0.258819045102523 -1.34536077988122e-016
outer loop
vertex -2.99437006149611 0.802339039817819 6.75
vertex -2.68467875173176 1.55 4.75
vertex -2.68467875173176 1.55 6.75
endloop
endfacet
facet normal -1.60809348206862e-016 1.84451547499744e-031 1.0
outer loop
vertex -2.99437006149611 -0.802339039817809 4.75
vertex -2.99437006149611 0.802339039817819 4.75
vertex -3.1 5.41368816715138e-015 4.75
endloop
endfacet
facet normal -1.60809348206862e-016 1.84451547499744e-031 1.0
outer loop
vertex -2.99437006149611 0.802339039817819 4.75
vertex -2.99437006149611 -0.802339039817809 4.75
vertex -2.68467875173176 -1.55 4.75
endloop
endfacet
facet normal -1.60809348206862e-016 1.84451547499744e-031 1.0
outer loop
vertex -2.99437006149611 0.802339039817819 4.75
vertex -2.68467875173176 -1.55 4.75
vertex -2.68467875173176 1.55 4.75
endloop
endfacet
facet normal -1.60809348206862e-016 1.84451547499744e-031 1.0
outer loop
vertex -2.68467875173176 1.55 4.75
vertex -2.68467875173176 -1.55 4.75
vertex -2.1920310216783 -2.19203102167829 4.75
endloop
endfacet
facet normal -1.60809348206862e-016 1.84451547499744e-031 1.0
outer loop
vertex -2.68467875173176 1.55 4.75
vertex -2.1920310216783 -2.19203102167829 4.75
vertex -2.19203102167829 2.1920310216783 4.75
endloop
endfacet
facet normal -1.60809348206862e-016 1.84451547499744e-031 1.0
outer loop
vertex -2.19203102167829 2.1920310216783 4.75
vertex -2.1920310216783 -2.19203102167829 4.75
vertex -1.60000000000001 -2.64631240233281 4.75
endloop
endfacet
facet normal -1.60809348206862e-016 1.84451547499744e-031 1.0
outer loop
vertex -2.19203102167829 2.1920310216783 4.75
vertex -1.60000000000001 -2.64631240233281 4.75
vertex -1.60000000000001 2.64631240233281 4.75
endloop
endfacet
facet normal -1.60809348206862e-016 1.84451547499744e-031 1.0
outer loop
vertex -1.60000000000001 2.64631240233281 4.75
vertex -1.60000000000001 -2.64631240233281 4.75
vertex -1.55 2.68467875173176 4.75
endloop
endfacet
facet normal -1.60809348206862e-016 1.84451547499744e-031 1.0
outer loop
vertex -1.55 2.68467875173176 4.75
vertex -1.60000000000001 -2.64631240233281 4.75
vertex -1.55 -2.68467875173176 4.75
endloop
endfacet
facet normal -1.60809348206862e-016 1.84451547499744e-031 1.0
outer loop
vertex -1.55 2.68467875173176 4.75
vertex -1.55 -2.68467875173176 4.75
vertex -1.50000000000001 -2.70538942985041 4.75
endloop
endfacet
facet normal -1.60809348206862e-016 1.84451547499744e-031 1.0
outer loop
vertex -1.55 2.68467875173176 4.75
vertex -1.50000000000001 -2.70538942985041 4.75
vertex -1.50000000000001 2.70538942985041 4.75
endloop
endfacet
facet normal 0.528498197563234 0.528498197563235 -0.664363838829918
outer loop
vertex 4.41941738241591 4.41941738241592 4.5
vertex 4.5466333698683 2.625 3.375
vertex 3.71231060122937 3.71231060122937 3.375
endloop
endfacet
facet normal 0.64727545700527 0.373704659341831 -0.664363838829918
outer loop
vertex 4.5466333698683 2.625 3.375
vertex 4.41941738241591 4.41941738241592 4.5
vertex 5.41265877365273 3.125 4.5
endloop
endfacet
facet normal 0.19344376616243 0.721941963725662 0.664363838829921
outer loop
vertex 1.35879998678823 5.07111058801761 3.375
vertex 3.12499999999999 5.41265877365275 2.25
vertex 1.61761903189075 6.03703641430668 2.25
endloop
endfacet
facet normal 0.373704659341829 0.647275457005268 0.664363838829921
outer loop
vertex 3.12499999999999 5.41265877365275 2.25
vertex 1.35879998678823 5.07111058801761 3.375
vertex 2.625 4.5466333698683 3.375
endloop
endfacet
facet normal 0.721941963725665 0.193443766162431 -0.664363838829918
outer loop
vertex 5.0711105880176 1.35879998678823 3.375
vertex 6.24999999999999 1.14810637420064e-015 4.5
vertex 5.25 0.0 3.375
endloop
endfacet
facet normal 0.747409318683661 4.32260144074485e-016 -0.664363838829918
outer loop
vertex 6.24999999999999 1.14810637420064e-015 4.5
vertex 5.0711105880176 1.35879998678823 3.375
vertex 6.03703641430667 1.61761903189076 4.5
endloop
endfacet
facet normal 0.721941963725664 0.193443766162431 0.664363838829919
outer loop
vertex 6.03703641430667 1.61761903189076 2.25
vertex 4.5466333698683 2.625 3.375
vertex 5.0711105880176 1.35879998678823 3.375
endloop
endfacet
facet normal 0.647275457005269 0.37370465934183 0.66436383882992
outer loop
vertex 4.5466333698683 2.625 3.375
vertex 6.03703641430667 1.61761903189076 2.25
vertex 5.41265877365273 3.12500000000001 2.25
endloop
endfacet
facet normal 0.528498197563233 0.528498197563233 0.66436383882992
outer loop
vertex 3.71231060122937 3.71231060122937 3.375
vertex 3.12499999999999 5.41265877365275 2.25
vertex 2.625 4.5466333698683 3.375
endloop
endfacet
facet normal 0.373704659341829 0.647275457005268 0.664363838829921
outer loop
vertex 3.12499999999999 5.41265877365275 2.25
vertex 3.71231060122937 3.71231060122937 3.375
vertex 4.41941738241591 4.41941738241593 2.25
endloop
endfacet
facet normal 0.0979253776853151 0.74381709029341 -0.661170746927474
outer loop
vertex -6.54232223951112e-015 6.25 4.5
vertex 0.0 5.25 3.375
vertex -0.129409522551267 5.26703708685547 3.375
endloop
endfacet
facet normal 0.64727545700527 0.373704659341831 -0.664363838829918
outer loop
vertex 4.5466333698683 2.625 3.375
vertex 6.03703641430667 1.61761903189076 4.5
vertex 5.0711105880176 1.35879998678823 3.375
endloop
endfacet
facet normal 0.721941963725665 0.193443766162431 -0.664363838829918
outer loop
vertex 6.03703641430667 1.61761903189076 4.5
vertex 4.5466333698683 2.625 3.375
vertex 5.41265877365273 3.125 4.5
endloop
endfacet
facet normal 0.721941963725665 -0.193443766162431 -0.664363838829918
outer loop
vertex 5.07111058801761 -1.35879998678823 3.375
vertex 6.24999999999999 1.14810637420064e-015 4.5
vertex 6.03703641430667 -1.61761903189075 4.5
endloop
endfacet
facet normal 0.747409318683661 4.32260144074485e-016 -0.664363838829918
outer loop
vertex 6.24999999999999 1.14810637420064e-015 4.5
vertex 5.07111058801761 -1.35879998678823 3.375
vertex 5.25 0.0 3.375
endloop
endfacet
facet normal 0.747409318683661 5.6381757922759e-016 0.664363838829919
outer loop
vertex 6.24999999999999 5.05337993672583e-015 2.25
vertex 5.07111058801761 -1.35879998678823 3.375
vertex 6.03703641430667 -1.61761903189075 2.25
endloop
endfacet
facet normal 0.721941963725665 -0.193443766162431 0.664363838829918
outer loop
vertex 5.07111058801761 -1.35879998678823 3.375
vertex 6.24999999999999 5.05337993672583e-015 2.25
vertex 5.25 0.0 3.375
endloop
endfacet
facet normal 0.37370465934183 0.64727545700527 -0.664363838829918
outer loop
vertex 3.12499999999999 5.41265877365274 4.5
vertex 3.71231060122937 3.71231060122937 3.375
vertex 2.625 4.5466333698683 3.375
endloop
endfacet
facet normal 0.528498197563234 0.528498197563234 -0.664363838829918
outer loop
vertex 3.71231060122937 3.71231060122937 3.375
vertex 3.12499999999999 5.41265877365274 4.5
vertex 4.41941738241591 4.41941738241592 4.5
endloop
endfacet
facet normal 0.0979253776853149 0.743817090293408 0.661170746927476
outer loop
vertex 0.0 5.25 3.375
vertex -6.49720277579036e-015 6.25 2.25
vertex -0.129409522551267 5.26703708685547 3.375
endloop
endfacet
facet normal 0.747409318683661 5.6381757922759e-016 0.664363838829919
outer loop
vertex 6.24999999999999 5.05337993672583e-015 2.25
vertex 5.0711105880176 1.35879998678823 3.375
vertex 5.25 0.0 3.375
endloop
endfacet
facet normal 0.721941963725664 0.19344376616243 0.664363838829919
outer loop
vertex 5.0711105880176 1.35879998678823 3.375
vertex 6.24999999999999 5.05337993672583e-015 2.25
vertex 6.03703641430667 1.61761903189076 2.25
endloop
endfacet
facet normal 0.19344376616243 0.721941963725665 -0.664363838829919
outer loop
vertex 1.61761903189075 6.03703641430668 4.5
vertex 2.625 4.5466333698683 3.375
vertex 1.35879998678823 5.07111058801761 3.375
endloop
endfacet
facet normal 0.373704659341831 0.64727545700527 -0.664363838829918
outer loop
vertex 2.625 4.5466333698683 3.375
vertex 1.61761903189075 6.03703641430668 4.5
vertex 3.12499999999999 5.41265877365274 4.5
endloop
endfacet
facet normal 0.647275457005269 0.37370465934183 0.66436383882992
outer loop
vertex 4.5466333698683 2.625 3.375
vertex 4.41941738241591 4.41941738241593 2.25
vertex 3.71231060122937 3.71231060122937 3.375
endloop
endfacet
facet normal 0.528498197563232 0.528498197563233 0.66436383882992
outer loop
vertex 4.41941738241591 4.41941738241593 2.25
vertex 4.5466333698683 2.625 3.375
vertex 5.41265877365273 3.12500000000001 2.25
endloop
endfacet
facet normal -0.721941963725663 -0.19344376616243 -0.664363838829921
outer loop
vertex -6.03703641430668 -1.61761903189076 4.5
vertex -4.54663336986831 -2.625 3.375
vertex -5.41265877365275 -3.125 4.5
endloop
endfacet
facet normal -0.647275457005269 -0.373704659341829 -0.66436383882992
outer loop
vertex -4.54663336986831 -2.625 3.375
vertex -6.03703641430668 -1.61761903189076 4.5
vertex -5.0711105880176 -1.35879998678824 3.375
endloop
endfacet
facet normal 0.64727545700527 -0.373704659341831 -0.664363838829918
outer loop
vertex 4.5466333698683 -2.625 3.375
vertex 4.41941738241592 -4.41941738241592 4.5
vertex 3.71231060122937 -3.71231060122937 3.375
endloop
endfacet
facet normal 0.528498197563234 -0.528498197563234 -0.664363838829918
outer loop
vertex 4.41941738241592 -4.41941738241592 4.5
vertex 4.5466333698683 -2.625 3.375
vertex 5.41265877365274 -3.125 4.5
endloop
endfacet
facet normal 0.64727545700527 -0.373704659341831 -0.664363838829918
outer loop
vertex 4.5466333698683 -2.625 3.375
vertex 6.03703641430667 -1.61761903189075 4.5
vertex 5.41265877365274 -3.125 4.5
endloop
endfacet
facet normal 0.721941963725665 -0.193443766162431 -0.664363838829918
outer loop
vertex 6.03703641430667 -1.61761903189075 4.5
vertex 4.5466333698683 -2.625 3.375
vertex 5.07111058801761 -1.35879998678823 3.375
endloop
endfacet
facet normal 0.528498197563234 -0.528498197563234 0.664363838829918
outer loop
vertex 4.41941738241592 -4.41941738241592 2.25
vertex 4.5466333698683 -2.625 3.375
vertex 3.71231060122937 -3.71231060122937 3.375
endloop
endfacet
facet normal 0.64727545700527 -0.373704659341831 0.664363838829918
outer loop
vertex 4.5466333698683 -2.625 3.375
vertex 4.41941738241592 -4.41941738241592 2.25
vertex 5.41265877365274 -3.12499999999999 2.25
endloop
endfacet
facet normal 7.51756772303453e-017 -0.74740931868366 -0.664363838829919
outer loop
vertex -5.77529135625809e-015 -6.25 4.5
vertex -1.35879998678823 -5.07111058801761 3.375
vertex -5.77529135625809e-015 -5.25 3.375
endloop
endfacet
facet normal -0.19344376616243 -0.721941963725664 -0.664363838829919
outer loop
vertex -1.35879998678823 -5.07111058801761 3.375
vertex -5.77529135625809e-015 -6.25 4.5
vertex -1.61761903189076 -6.03703641430668 4.5
endloop
endfacet
facet normal -0.74740931868366 -1.06185644087863e-015 -0.66436383882992
outer loop
vertex -6.25000000000001 -3.82702124733548e-016 4.5
vertex -5.0711105880176 -1.35879998678824 3.375
vertex -6.03703641430668 -1.61761903189076 4.5
endloop
endfacet
facet normal -0.721941963725663 -0.19344376616243 -0.66436383882992
outer loop
vertex -5.0711105880176 -1.35879998678824 3.375
vertex -6.25000000000001 -3.82702124733548e-016 4.5
vertex -5.25 0.0 3.375
endloop
endfacet
facet normal 0.193443766162431 -0.721941963725664 -0.664363838829919
outer loop
vertex 1.61761903189075 -6.03703641430668 4.5
vertex -5.77529135625809e-015 -5.25 3.375
vertex 1.35879998678823 -5.07111058801761 3.375
endloop
endfacet
facet normal 9.25379156672715e-017 -0.74740931868366 -0.664363838829919
outer loop
vertex -5.77529135625809e-015 -5.25 3.375
vertex 1.61761903189075 -6.03703641430668 4.5
vertex -5.77529135625809e-015 -6.25 4.5
endloop
endfacet
facet normal 0.373704659341831 -0.647275457005269 -0.664363838829919
outer loop
vertex 3.125 -5.41265877365274 4.5
vertex 1.35879998678823 -5.07111058801761 3.375
vertex 2.625 -4.5466333698683 3.375
endloop
endfacet
facet normal 0.193443766162431 -0.721941963725664 -0.664363838829919
outer loop
vertex 1.35879998678823 -5.07111058801761 3.375
vertex 3.125 -5.41265877365274 4.5
vertex 1.61761903189075 -6.03703641430668 4.5
endloop
endfacet
facet normal -0.193443766162431 -0.721941963725664 -0.664363838829919
outer loop
vertex -1.61761903189076 -6.03703641430668 4.5
vertex -2.625 -4.5466333698683 3.375
vertex -1.35879998678823 -5.07111058801761 3.375
endloop
endfacet
facet normal -0.37370465934183 -0.647275457005269 -0.66436383882992
outer loop
vertex -2.625 -4.5466333698683 3.375
vertex -1.61761903189076 -6.03703641430668 4.5
vertex -3.12500000000001 -5.41265877365274 4.5
endloop
endfacet
facet normal -0.647275457005269 -0.373704659341829 -0.66436383882992
outer loop
vertex -4.54663336986831 -2.625 3.375
vertex -4.41941738241593 -4.41941738241592 4.5
vertex -5.41265877365275 -3.125 4.5
endloop
endfacet
facet normal -0.528498197563233 -0.528498197563234 -0.664363838829919
outer loop
vertex -4.41941738241593 -4.41941738241592 4.5
vertex -4.54663336986831 -2.625 3.375
vertex -3.71231060122938 -3.71231060122937 3.375
endloop
endfacet
facet normal -0.528498197563233 -0.528498197563233 0.66436383882992
outer loop
vertex -4.41941738241593 -4.41941738241592 2.25
vertex -4.54663336986831 -2.625 3.375
vertex -5.41265877365275 -3.125 2.25
endloop
endfacet
facet normal -0.647275457005268 -0.373704659341829 0.664363838829921
outer loop
vertex -4.54663336986831 -2.625 3.375
vertex -4.41941738241593 -4.41941738241592 2.25
vertex -3.71231060122938 -3.71231060122937 3.375
endloop
endfacet
facet normal 0.373704659341831 -0.647275457005269 0.664363838829919
outer loop
vertex 3.125 -5.41265877365274 2.25
vertex 3.71231060122937 -3.71231060122937 3.375
vertex 2.625 -4.5466333698683 3.375
endloop
endfacet
facet normal 0.528498197563234 -0.528498197563234 0.664363838829918
outer loop
vertex 3.71231060122937 -3.71231060122937 3.375
vertex 3.125 -5.41265877365274 2.25
vertex 4.41941738241592 -4.41941738241592 2.25
endloop
endfacet
facet normal -0.647275457005268 -0.373704659341829 0.664363838829921
outer loop
vertex -4.54663336986831 -2.625 3.375
vertex -6.03703641430668 -1.61761903189075 2.25
vertex -5.41265877365275 -3.125 2.25
endloop
endfacet
facet normal -0.721941963725662 -0.193443766162429 0.664363838829922
outer loop
vertex -6.03703641430668 -1.61761903189075 2.25
vertex -4.54663336986831 -2.625 3.375
vertex -5.0711105880176 -1.35879998678824 3.375
endloop
endfacet
facet normal 0.528498197563234 -0.528498197563234 -0.664363838829918
outer loop
vertex 3.71231060122937 -3.71231060122937 3.375
vertex 3.125 -5.41265877365274 4.5
vertex 2.625 -4.5466333698683 3.375
endloop
endfacet
facet normal 0.373704659341831 -0.647275457005269 -0.664363838829919
outer loop
vertex 3.125 -5.41265877365274 4.5
vertex 3.71231060122937 -3.71231060122937 3.375
vertex 4.41941738241592 -4.41941738241592 4.5
endloop
endfacet
facet normal 7.5712840091404e-017 -0.74740931868366 0.664363838829919
outer loop
vertex -5.77529135625809e-015 -5.25 3.375
vertex -1.61761903189076 -6.03703641430667 2.25
vertex -5.77529135625809e-015 -6.25 2.25
endloop
endfacet
facet normal -0.193443766162431 -0.721941963725664 0.664363838829919
outer loop
vertex -1.61761903189076 -6.03703641430667 2.25
vertex -5.77529135625809e-015 -5.25 3.375
vertex -1.35879998678823 -5.07111058801761 3.375
endloop
endfacet
facet normal 0.193443766162431 -0.721941963725664 0.664363838829919
outer loop
vertex 1.35879998678823 -5.07111058801761 3.375
vertex -5.77529135625809e-015 -6.25 2.25
vertex 1.61761903189075 -6.03703641430667 2.25
endloop
endfacet
facet normal 6.57787175765521e-017 -0.74740931868366 0.664363838829919
outer loop
vertex -5.77529135625809e-015 -6.25 2.25
vertex 1.35879998678823 -5.07111058801761 3.375
vertex -5.77529135625809e-015 -5.25 3.375
endloop
endfacet
facet normal -0.19344376616243 -0.721941963725664 0.664363838829919
outer loop
vertex -1.35879998678823 -5.07111058801761 3.375
vertex -3.12500000000001 -5.41265877365274 2.25
vertex -1.61761903189076 -6.03703641430667 2.25
endloop
endfacet
facet normal -0.37370465934183 -0.647275457005268 0.66436383882992
outer loop
vertex -3.12500000000001 -5.41265877365274 2.25
vertex -1.35879998678823 -5.07111058801761 3.375
vertex -2.625 -4.5466333698683 3.375
endloop
endfacet
facet normal -0.528498197563233 -0.528498197563234 -0.664363838829919
outer loop
vertex -3.71231060122938 -3.71231060122937 3.375
vertex -3.12500000000001 -5.41265877365274 4.5
vertex -4.41941738241593 -4.41941738241592 4.5
endloop
endfacet
facet normal -0.37370465934183 -0.647275457005269 -0.664363838829919
outer loop
vertex -3.12500000000001 -5.41265877365274 4.5
vertex -3.71231060122938 -3.71231060122937 3.375
vertex -2.625 -4.5466333698683 3.375
endloop
endfacet
facet normal -0.37370465934183 -0.647275457005268 0.66436383882992
outer loop
vertex -3.12500000000001 -5.41265877365274 2.25
vertex -3.71231060122938 -3.71231060122937 3.375
vertex -4.41941738241593 -4.41941738241592 2.25
endloop
endfacet
facet normal -0.528498197563233 -0.528498197563234 0.66436383882992
outer loop
vertex -3.71231060122938 -3.71231060122937 3.375
vertex -3.12500000000001 -5.41265877365274 2.25
vertex -2.625 -4.5466333698683 3.375
endloop
endfacet
facet normal 0.721941963725665 -0.19344376616243 0.664363838829918
outer loop
vertex 6.03703641430667 -1.61761903189075 2.25
vertex 4.5466333698683 -2.625 3.375
vertex 5.41265877365274 -3.12499999999999 2.25
endloop
endfacet
facet normal 0.64727545700527 -0.373704659341831 0.664363838829918
outer loop
vertex 4.5466333698683 -2.625 3.375
vertex 6.03703641430667 -1.61761903189075 2.25
vertex 5.07111058801761 -1.35879998678823 3.375
endloop
endfacet
facet normal 0.373704659341831 -0.647275457005269 0.664363838829919
outer loop
vertex 2.625 -4.5466333698683 3.375
vertex 1.61761903189075 -6.03703641430667 2.25
vertex 3.125 -5.41265877365274 2.25
endloop
endfacet
facet normal 0.193443766162431 -0.721941963725664 0.664363838829919
outer loop
vertex 1.61761903189075 -6.03703641430667 2.25
vertex 2.625 -4.5466333698683 3.375
vertex 1.35879998678823 -5.07111058801761 3.375
endloop
endfacet
facet normal -0.721941963725662 -0.19344376616243 0.664363838829922
outer loop
vertex -5.0711105880176 -1.35879998678824 3.375
vertex -6.25000000000001 2.88764567812905e-015 2.25
vertex -6.03703641430668 -1.61761903189075 2.25
endloop
endfacet
facet normal -0.747409318683658 -1.01487164260966e-015 0.664363838829922
outer loop
vertex -6.25000000000001 2.88764567812905e-015 2.25
vertex -5.0711105880176 -1.35879998678824 3.375
vertex -5.25 0.0 3.375
endloop
endfacet
facet normal -0.373704659341829 0.647275457005267 0.664363838829922
outer loop
vertex -2.625 4.5466333698683 3.375
vertex -1.61761903189076 6.03703641430668 2.25
vertex -3.12500000000001 5.41265877365274 2.25
endloop
endfacet
facet normal -0.19344376616243 0.721941963725662 0.664363838829922
outer loop
vertex -1.61761903189076 6.03703641430668 2.25
vertex -2.625 4.5466333698683 3.375
vertex -1.35879998678824 5.07111058801761 3.375
endloop
endfacet
facet normal -0.721941963725665 0.19344376616243 -0.664363838829919
outer loop
vertex -6.03703641430668 1.61761903189075 4.5
vertex -5.25 0.0 3.375
vertex -6.25000000000001 -3.82702124733548e-016 4.5
endloop
endfacet
facet normal -0.747409318683659 -1.18616782809866e-015 -0.66436383882992
outer loop
vertex -5.25 0.0 3.375
vertex -6.03703641430668 1.61761903189075 4.5
vertex -5.07111058801762 1.35879998678823 3.375
endloop
endfacet
facet normal -0.647275457005267 0.373704659341829 0.664363838829921
outer loop
vertex -4.54663336986831 2.625 3.375
vertex -6.03703641430668 1.61761903189076 2.25
vertex -5.07111058801762 1.35879998678823 3.375
endloop
endfacet
facet normal -0.721941963725663 0.19344376616243 0.664363838829921
outer loop
vertex -6.03703641430668 1.61761903189076 2.25
vertex -4.54663336986831 2.625 3.375
vertex -5.41265877365275 3.125 2.25
endloop
endfacet
facet normal -0.528498197563233 0.528498197563233 -0.664363838829919
outer loop
vertex -4.41941738241593 4.41941738241592 4.5
vertex -4.54663336986831 2.625 3.375
vertex -5.41265877365275 3.125 4.5
endloop
endfacet
facet normal -0.647275457005269 0.37370465934183 -0.664363838829919
outer loop
vertex -4.54663336986831 2.625 3.375
vertex -4.41941738241593 4.41941738241592 4.5
vertex -3.71231060122938 3.71231060122937 3.375
endloop
endfacet
facet normal -0.647275457005267 0.373704659341829 0.664363838829921
outer loop
vertex -4.54663336986831 2.625 3.375
vertex -4.41941738241593 4.41941738241592 2.25
vertex -5.41265877365275 3.125 2.25
endloop
endfacet
facet normal -0.528498197563232 0.528498197563232 0.664363838829922
outer loop
vertex -4.41941738241593 4.41941738241592 2.25
vertex -4.54663336986831 2.625 3.375
vertex -3.71231060122938 3.71231060122937 3.375
endloop
endfacet
facet normal -0.193443766162431 0.721941963725664 -0.664363838829919
outer loop
vertex -1.61761903189076 6.03703641430668 4.5
vertex 0.0 5.25 3.375
vertex -1.35879998678824 5.07111058801761 3.375
endloop
endfacet
facet normal -0.097925377685317 0.743817090293409 -0.661170746927474
outer loop
vertex 0.0 5.25 3.375
vertex -1.61761903189076 6.03703641430668 4.5
vertex -6.54232223951112e-015 6.25 4.5
endloop
endfacet
facet normal -0.721941963725663 0.19344376616243 0.664363838829921
outer loop
vertex -5.07111058801762 1.35879998678823 3.375
vertex -6.25000000000001 2.88764567812905e-015 2.25
vertex -5.25 0.0 3.375
endloop
endfacet
facet normal -0.747409318683658 -1.01487164260966e-015 0.664363838829922
outer loop
vertex -6.25000000000001 2.88764567812905e-015 2.25
vertex -5.07111058801762 1.35879998678823 3.375
vertex -6.03703641430668 1.61761903189076 2.25
endloop
endfacet
facet normal -0.37370465934183 0.647275457005269 -0.66436383882992
outer loop
vertex -3.12500000000001 5.41265877365274 4.5
vertex -1.35879998678824 5.07111058801761 3.375
vertex -2.625 4.5466333698683 3.375
endloop
endfacet
facet normal -0.19344376616243 0.721941963725664 -0.664363838829919
outer loop
vertex -1.35879998678824 5.07111058801761 3.375
vertex -3.12500000000001 5.41265877365274 4.5
vertex -1.61761903189076 6.03703641430668 4.5
endloop
endfacet
facet normal -0.721941963725665 0.19344376616243 -0.664363838829919
outer loop
vertex -6.03703641430668 1.61761903189075 4.5
vertex -4.54663336986831 2.625 3.375
vertex -5.07111058801762 1.35879998678823 3.375
endloop
endfacet
facet normal -0.647275457005269 0.37370465934183 -0.664363838829919
outer loop
vertex -4.54663336986831 2.625 3.375
vertex -6.03703641430668 1.61761903189075 4.5
vertex -5.41265877365275 3.125 4.5
endloop
endfacet
facet normal -0.528498197563232 0.528498197563232 0.664363838829922
outer loop
vertex -3.71231060122938 3.71231060122937 3.375
vertex -3.12500000000001 5.41265877365274 2.25
vertex -4.41941738241593 4.41941738241592 2.25
endloop
endfacet
facet normal -0.373704659341829 0.647275457005267 0.664363838829922
outer loop
vertex -3.12500000000001 5.41265877365274 2.25
vertex -3.71231060122938 3.71231060122937 3.375
vertex -2.625 4.5466333698683 3.375
endloop
endfacet
facet normal -0.19344376616243 0.721941963725662 0.664363838829922
outer loop
vertex -1.35879998678824 5.07111058801761 3.375
vertex -6.49720277579036e-015 6.25 2.25
vertex -1.61761903189076 6.03703641430668 2.25
endloop
endfacet
facet normal -0.0979253776853165 0.743817090293407 0.661170746927477
outer loop
vertex -6.49720277579036e-015 6.25 2.25
vertex -1.35879998678824 5.07111058801761 3.375
vertex 0.0 5.25 3.375
endloop
endfacet
facet normal -0.37370465934183 0.647275457005269 -0.66436383882992
outer loop
vertex -3.12500000000001 5.41265877365274 4.5
vertex -3.71231060122938 3.71231060122937 3.375
vertex -4.41941738241593 4.41941738241592 4.5
endloop
endfacet
facet normal -0.528498197563233 0.528498197563233 -0.664363838829919
outer loop
vertex -3.71231060122938 3.71231060122937 3.375
vertex -3.12500000000001 5.41265877365274 4.5
vertex -2.625 4.5466333698683 3.375
endloop
endfacet
facet normal 0.0979253776853165 0.743817090293408 0.661170746927476
outer loop
vertex 0.0 5.25 3.375
vertex 1.61761903189075 6.03703641430668 2.25
vertex -6.49720277579036e-015 6.25 2.25
endloop
endfacet
facet normal 0.19344376616243 0.721941963725663 0.664363838829921
outer loop
vertex 1.61761903189075 6.03703641430668 2.25
vertex 0.0 5.25 3.375
vertex 1.35879998678823 5.07111058801761 3.375
endloop
endfacet
facet normal 0.0979253776853167 0.74381709029341 -0.661170746927474
outer loop
vertex -6.54232223951112e-015 6.25 4.5
vertex 1.35879998678823 5.07111058801761 3.375
vertex 0.0 5.25 3.375
endloop
endfacet
facet normal 0.193443766162431 0.721941963725664 -0.664363838829918
outer loop
vertex 1.35879998678823 5.07111058801761 3.375
vertex -6.54232223951112e-015 6.25 4.5
vertex 1.61761903189075 6.03703641430668 4.5
endloop
endfacet
facet normal -0.0 -0.0 1.0
outer loop
vertex -3.12500000000001 -5.41265877365274 6.75
vertex -2.99437006149611 -0.802339039817809 6.75
vertex -3.1 5.39153874117719e-015 6.75
endloop
endfacet
facet normal -0.0 -0.0 1.0
outer loop
vertex -2.99437006149611 -0.802339039817809 6.75
vertex -3.12500000000001 -5.41265877365274 6.75
vertex -1.61761903189076 -6.03703641430668 6.75
endloop
endfacet
facet normal -0.0 -0.0 1.0
outer loop
vertex -2.99437006149611 -0.802339039817809 6.75
vertex -1.61761903189076 -6.03703641430668 6.75
vertex -2.68467875173176 -1.55 6.75
endloop
endfacet
facet normal -0.0 -0.0 1.0
outer loop
vertex -2.68467875173176 -1.55 6.75
vertex -1.61761903189076 -6.03703641430668 6.75
vertex -2.1920310216783 -2.19203102167829 6.75
endloop
endfacet
facet normal -0.0 -0.0 1.0
outer loop
vertex -2.1920310216783 -2.19203102167829 6.75
vertex -1.61761903189076 -6.03703641430668 6.75
vertex -1.60000000000001 -2.64631240233281 6.75
endloop
endfacet
facet normal -0.0 -0.0 1.0
outer loop
vertex -1.60000000000001 -2.64631240233281 6.75
vertex -1.61761903189076 -6.03703641430668 6.75
vertex -5.77529135625809e-015 -6.25 6.75
endloop
endfacet
facet normal -0.0 -0.0 1.0
outer loop
vertex -1.60000000000001 -2.64631240233281 6.75
vertex -5.77529135625809e-015 -6.25 6.75
vertex -1.55 -2.68467875173176 6.75
endloop
endfacet
facet normal -0.0 -0.0 1.0
outer loop
vertex -1.55 -2.68467875173176 6.75
vertex -5.77529135625809e-015 -6.25 6.75
vertex -1.50000000000001 -2.70538942985041 6.75
endloop
endfacet
facet normal -0.0 -0.0 1.0
outer loop
vertex -1.50000000000001 -2.70538942985041 6.75
vertex -5.77529135625809e-015 -6.25 6.75
vertex -0.802339039817822 -2.99437006149611 6.75
endloop
endfacet
facet normal -0.0 -0.0 1.0
outer loop
vertex -0.802339039817822 -2.99437006149611 6.75
vertex -5.77529135625809e-015 -6.25 6.75
vertex -5.19286704787415e-015 -3.1 6.75
endloop
endfacet
facet normal -0.0 -0.0 1.0
outer loop
vertex -5.19286704787415e-015 -3.1 6.75
vertex -5.77529135625809e-015 -6.25 6.75
vertex 1.61761903189075 -6.03703641430668 6.75
endloop
endfacet
facet normal -0.0 -0.0 1.0
outer loop
vertex -5.19286704787415e-015 -3.1 6.75
vertex 1.61761903189075 -6.03703641430668 6.75
vertex 0.802339039817809 -2.99437006149611 6.75
endloop
endfacet
facet normal -0.0 -0.0 1.0
outer loop
vertex 0.802339039817809 -2.99437006149611 6.75
vertex 1.61761903189075 -6.03703641430668 6.75
vertex 1.54999999999999 -2.68467875173176 6.75
endloop
endfacet
facet normal -0.0 -0.0 1.0
outer loop
vertex 1.54999999999999 -2.68467875173176 6.75
vertex 1.61761903189075 -6.03703641430668 6.75
vertex 2.19203102167829 -2.1920310216783 6.75
endloop
endfacet
facet normal -0.0 -0.0 1.0
outer loop
vertex 2.19203102167829 -2.1920310216783 6.75
vertex 1.61761903189075 -6.03703641430668 6.75
vertex 3.125 -5.41265877365274 6.75
endloop
endfacet
facet normal -0.0 -0.0 1.0
outer loop
vertex 2.19203102167829 -2.1920310216783 6.75
vertex 3.125 -5.41265877365274 6.75
vertex 2.68467875173176 -1.55 6.75
endloop
endfacet
facet normal -0.0 -0.0 1.0
outer loop
vertex 2.68467875173176 -1.55 6.75
vertex 3.125 -5.41265877365274 6.75
vertex 2.99437006149611 -0.80233903981782 6.75
endloop
endfacet
facet normal -0.0 -0.0 1.0
outer loop
vertex 2.99437006149611 -0.80233903981782 6.75
vertex 3.125 -5.41265877365274 6.75
vertex 3.1 -5.79808826157287e-015 6.75
endloop
endfacet
facet normal -0.0 -0.0 1.0
outer loop
vertex 3.1 -5.79808826157287e-015 6.75
vertex 3.125 -5.41265877365274 6.75
vertex 3.12499999999999 5.41265877365274 6.75
endloop
endfacet
facet normal -0.0 -0.0 1.0
outer loop
vertex 3.12499999999999 5.41265877365274 6.75
vertex 3.125 -5.41265877365274 6.75
vertex 4.41941738241591 4.41941738241592 6.75
endloop
endfacet
facet normal -0.0 -0.0 1.0
outer loop
vertex 4.41941738241591 4.41941738241592 6.75
vertex 3.125 -5.41265877365274 6.75
vertex 4.41941738241592 -4.41941738241592 6.75
endloop
endfacet
facet normal -0.0 -0.0 1.0
outer loop
vertex 4.41941738241591 4.41941738241592 6.75
vertex 4.41941738241592 -4.41941738241592 6.75
vertex 5.41265877365273 3.125 6.75
endloop
endfacet
facet normal -0.0 -0.0 1.0
outer loop
vertex 5.41265877365273 3.125 6.75
vertex 4.41941738241592 -4.41941738241592 6.75
vertex 5.41265877365274 -3.125 6.75
endloop
endfacet
facet normal -0.0 -0.0 1.0
outer loop
vertex 5.41265877365273 3.125 6.75
vertex 5.41265877365274 -3.125 6.75
vertex 6.03703641430667 1.61761903189076 6.75
endloop
endfacet
facet normal -0.0 -0.0 1.0
outer loop
vertex 6.03703641430667 1.61761903189076 6.75
vertex 5.41265877365274 -3.125 6.75
vertex 6.03703641430667 -1.61761903189075 6.75
endloop
endfacet
facet normal -0.0 -0.0 1.0
outer loop
vertex 6.03703641430667 1.61761903189076 6.75
vertex 6.03703641430667 -1.61761903189075 6.75
vertex 6.24999999999999 1.14810637420064e-015 6.75
endloop
endfacet
facet normal -0.0 -0.0 1.0
outer loop
vertex -6.03703641430668 -1.61761903189076 6.75
vertex -6.03703641430668 1.61761903189075 6.75
vertex -6.25000000000001 -3.82702124733548e-016 6.75
endloop
endfacet
facet normal -0.0 -0.0 1.0
outer loop
vertex -6.03703641430668 1.61761903189075 6.75
vertex -6.03703641430668 -1.61761903189076 6.75
vertex -5.41265877365275 3.125 6.75
endloop
endfacet
facet normal -0.0 -0.0 1.0
outer loop
vertex -5.41265877365275 3.125 6.75
vertex -6.03703641430668 -1.61761903189076 6.75
vertex -5.41265877365275 -3.125 6.75
endloop
endfacet
facet normal -0.0 -0.0 1.0
outer loop
vertex -5.41265877365275 3.125 6.75
vertex -5.41265877365275 -3.125 6.75
vertex -4.41941738241593 -4.41941738241592 6.75
endloop
endfacet
facet normal -0.0 -0.0 1.0
outer loop
vertex -5.41265877365275 3.125 6.75
vertex -4.41941738241593 -4.41941738241592 6.75
vertex -4.41941738241593 4.41941738241592 6.75
endloop
endfacet
facet normal -0.0 -0.0 1.0
outer loop
vertex -4.41941738241593 4.41941738241592 6.75
vertex -4.41941738241593 -4.41941738241592 6.75
vertex -3.12500000000001 5.41265877365274 6.75
endloop
endfacet
facet normal -0.0 -0.0 1.0
outer loop
vertex -3.12500000000001 5.41265877365274 6.75
vertex -4.41941738241593 -4.41941738241592 6.75
vertex -3.12500000000001 -5.41265877365274 6.75
endloop
endfacet
facet normal -0.0 -0.0 1.0
outer loop
vertex -3.12500000000001 5.41265877365274 6.75
vertex -3.12500000000001 -5.41265877365274 6.75
vertex -3.1 5.39153874117719e-015 6.75
endloop
endfacet
facet normal -0.0 -0.0 1.0
outer loop
vertex -3.12500000000001 5.41265877365274 6.75
vertex -3.1 5.39153874117719e-015 6.75
vertex -2.99437006149611 0.802339039817819 6.75
endloop
endfacet
facet normal -0.0 -0.0 1.0
outer loop
vertex -3.12500000000001 5.41265877365274 6.75
vertex -2.99437006149611 0.802339039817819 6.75
vertex -1.61761903189076 6.03703641430668 6.75
endloop
endfacet
facet normal -0.0 -0.0 1.0
outer loop
vertex -1.61761903189076 6.03703641430668 6.75
vertex -2.99437006149611 0.802339039817819 6.75
vertex -2.68467875173176 1.55 6.75
endloop
endfacet
facet normal -0.0 -0.0 1.0
outer loop
vertex -1.61761903189076 6.03703641430668 6.75
vertex -2.68467875173176 1.55 6.75
vertex -2.19203102167829 2.1920310216783 6.75
endloop
endfacet
facet normal -0.0 -0.0 1.0
outer loop
vertex -1.61761903189076 6.03703641430668 6.75
vertex -2.19203102167829 2.1920310216783 6.75
vertex -1.60000000000001 2.64631240233281 6.75
endloop
endfacet
facet normal -0.0 -0.0 1.0
outer loop
vertex -1.61761903189076 6.03703641430668 6.75
vertex -1.60000000000001 2.64631240233281 6.75
vertex -6.54069560572519e-015 6.25 6.75
endloop
endfacet
facet normal -0.0 -0.0 1.0
outer loop
vertex -6.54069560572519e-015 6.25 6.75
vertex -1.60000000000001 2.64631240233281 6.75
vertex -1.55 2.68467875173176 6.75
endloop
endfacet
facet normal -0.0 -0.0 1.0
outer loop
vertex -6.54069560572519e-015 6.25 6.75
vertex -1.55 2.68467875173176 6.75
vertex -1.50000000000001 2.70538942985041 6.75
endloop
endfacet
facet normal -0.0 -0.0 1.0
outer loop
vertex -6.54069560572519e-015 6.25 6.75
vertex -1.50000000000001 2.70538942985041 6.75
vertex -0.802339039817807 2.99437006149611 6.75
endloop
endfacet
facet normal -0.0 -0.0 1.0
outer loop
vertex -6.54069560572519e-015 6.25 6.75
vertex -0.802339039817807 2.99437006149611 6.75
vertex 6.37640046261158e-015 3.1 6.75
endloop
endfacet
facet normal -0.0 -0.0 1.0
outer loop
vertex -6.54069560572519e-015 6.25 6.75
vertex 6.37640046261158e-015 3.1 6.75
vertex 1.61761903189075 6.03703641430668 6.75
endloop
endfacet
facet normal -0.0 -0.0 1.0
outer loop
vertex 1.61761903189075 6.03703641430668 6.75
vertex 6.37640046261158e-015 3.1 6.75
vertex 0.802339039817821 2.99437006149611 6.75
endloop
endfacet
facet normal -0.0 -0.0 1.0
outer loop
vertex 1.61761903189075 6.03703641430668 6.75
vertex 0.802339039817821 2.99437006149611 6.75
vertex 1.55000000000001 2.68467875173176 6.75
endloop
endfacet
facet normal -0.0 -0.0 1.0
outer loop
vertex 1.61761903189075 6.03703641430668 6.75
vertex 1.55000000000001 2.68467875173176 6.75
vertex 2.1920310216783 2.19203102167829 6.75
endloop
endfacet
facet normal -0.0 -0.0 1.0
outer loop
vertex 1.61761903189075 6.03703641430668 6.75
vertex 2.1920310216783 2.19203102167829 6.75
vertex 3.12499999999999 5.41265877365274 6.75
endloop
endfacet
facet normal -0.0 -0.0 1.0
outer loop
vertex 3.12499999999999 5.41265877365274 6.75
vertex 2.1920310216783 2.19203102167829 6.75
vertex 2.68467875173176 1.54999999999999 6.75
endloop
endfacet
facet normal -0.0 -0.0 1.0
outer loop
vertex 3.12499999999999 5.41265877365274 6.75
vertex 2.68467875173176 1.54999999999999 6.75
vertex 2.99437006149611 0.802339039817808 6.75
endloop
endfacet
facet normal -0.0 -0.0 1.0
outer loop
vertex 3.12499999999999 5.41265877365274 6.75
vertex 2.99437006149611 0.802339039817808 6.75
vertex 3.1 -5.79808826157287e-015 6.75
endloop
endfacet
facet normal 0.0 0.0 -1.0
outer loop
vertex -6.03703641430668 1.61761903189076 3.60955709766131e-015
vertex -6.03703641430668 -1.61761903189075 3.60955709766131e-015
vertex -6.25000000000001 2.88764567812905e-015 3.60955709766131e-015
endloop
endfacet
facet normal 0.0 0.0 -1.0
outer loop
vertex -6.03703641430668 -1.61761903189075 3.60955709766131e-015
vertex -6.03703641430668 1.61761903189076 3.60955709766131e-015
vertex -5.41265877365275 3.125 3.60955709766131e-015
endloop
endfacet
facet normal 0.0 0.0 -1.0
outer loop
vertex -6.03703641430668 -1.61761903189075 3.60955709766131e-015
vertex -5.41265877365275 3.125 3.60955709766131e-015
vertex -5.41265877365275 -3.125 3.60955709766131e-015
endloop
endfacet
facet normal 0.0 0.0 -1.0
outer loop
vertex -5.41265877365275 -3.125 3.60955709766131e-015
vertex -5.41265877365275 3.125 3.60955709766131e-015
vertex -4.41941738241593 4.41941738241592 3.60955709766131e-015
endloop
endfacet
facet normal 0.0 0.0 -1.0
outer loop
vertex -5.41265877365275 -3.125 3.60955709766131e-015
vertex -4.41941738241593 4.41941738241592 3.60955709766131e-015
vertex -4.41941738241593 -4.41941738241592 3.60955709766131e-015
endloop
endfacet
facet normal 0.0 0.0 -1.0
outer loop
vertex -4.41941738241593 -4.41941738241592 3.60955709766131e-015
vertex -4.41941738241593 4.41941738241592 3.60955709766131e-015
vertex -3.12500000000001 5.41265877365274 3.60955709766131e-015
endloop
endfacet
facet normal 0.0 0.0 -1.0
outer loop
vertex -4.41941738241593 -4.41941738241592 3.60955709766131e-015
vertex -3.12500000000001 5.41265877365274 3.60955709766131e-015
vertex -3.12500000000001 -5.41265877365274 3.60955709766131e-015
endloop
endfacet
facet normal 0.0 0.0 -1.0
outer loop
vertex -3.12500000000001 -5.41265877365274 3.60955709766131e-015
vertex -3.12500000000001 5.41265877365274 3.60955709766131e-015
vertex -1.61761903189076 6.03703641430668 3.60955709766131e-015
endloop
endfacet
facet normal 0.0 0.0 -1.0
outer loop
vertex -3.12500000000001 -5.41265877365274 3.60955709766131e-015
vertex -1.61761903189076 6.03703641430668 3.60955709766131e-015
vertex -1.61761903189076 -6.03703641430667 3.60955709766131e-015
endloop
endfacet
facet normal 0.0 0.0 -1.0
outer loop
vertex -1.61761903189076 -6.03703641430667 3.60955709766131e-015
vertex -1.61761903189076 6.03703641430668 3.60955709766131e-015
vertex -1.60000000000001 2.7712812921102 3.60955709766131e-016
endloop
endfacet
facet normal 0.0 0.0 -1.0
outer loop
vertex -1.60000000000001 2.7712812921102 3.60955709766131e-016
vertex -1.61761903189076 6.03703641430668 3.60955709766131e-015
vertex -6.49720277579036e-015 6.25 3.60955709766131e-015
endloop
endfacet
facet normal 0.0 0.0 -1.0
outer loop
vertex -1.60000000000001 2.7712812921102 3.60955709766131e-016
vertex -6.49720277579036e-015 6.25 3.60955709766131e-015
vertex -1.5 2.81270264834752 0.0
endloop
endfacet
facet normal 0.0 0.0 -1.0
outer loop
vertex -1.5 2.81270264834752 0.0
vertex -6.49720277579036e-015 6.25 3.60955709766131e-015
vertex -0.828220944328073 3.09096264412502 0.0
endloop
endfacet
facet normal 0.0 0.0 -1.0
outer loop
vertex -0.828220944328073 3.09096264412502 0.0
vertex -6.49720277579036e-015 6.25 3.60955709766131e-015
vertex -6.16717833198525e-015 3.2 0.0
endloop
endfacet
facet normal 0.0 0.0 -1.0
outer loop
vertex -6.16717833198525e-015 3.2 0.0
vertex -6.49720277579036e-015 6.25 3.60955709766131e-015
vertex 1.61761903189075 6.03703641430668 3.60955709766131e-015
endloop
endfacet
facet normal 0.0 0.0 -1.0
outer loop
vertex -6.16717833198525e-015 3.2 0.0
vertex 1.61761903189075 6.03703641430668 3.60955709766131e-015
vertex 0.828220944328059 3.09096264412502 0.0
endloop
endfacet
facet normal 0.0 0.0 -1.0
outer loop
vertex 0.828220944328059 3.09096264412502 0.0
vertex 1.61761903189075 6.03703641430668 3.60955709766131e-015
vertex 1.59999999999999 2.7712812921102 0.0
endloop
endfacet
facet normal 0.0 0.0 -1.0
outer loop
vertex 1.59999999999999 2.7712812921102 0.0
vertex 1.61761903189075 6.03703641430668 3.60955709766131e-015
vertex 2.26274169979694 2.26274169979695 0.0
endloop
endfacet
facet normal 0.0 0.0 -1.0
outer loop
vertex 2.26274169979694 2.26274169979695 0.0
vertex 1.61761903189075 6.03703641430668 3.60955709766131e-015
vertex 3.12499999999999 5.41265877365275 3.60955709766131e-015
endloop
endfacet
facet normal 0.0 0.0 -1.0
outer loop
vertex 2.26274169979694 2.26274169979695 0.0
vertex 3.12499999999999 5.41265877365275 3.60955709766131e-015
vertex 2.7712812921102 1.6 0.0
endloop
endfacet
facet normal 0.0 0.0 -1.0
outer loop
vertex 2.7712812921102 1.6 0.0
vertex 3.12499999999999 5.41265877365275 3.60955709766131e-015
vertex 3.09096264412501 0.828220944328069 0.0
endloop
endfacet
facet normal 0.0 0.0 -1.0
outer loop
vertex 3.09096264412501 0.828220944328069 0.0
vertex 3.12499999999999 5.41265877365275 3.60955709766131e-015
vertex 3.19999999999999 5.8783046359073e-016 0.0
endloop
endfacet
facet normal 0.0 0.0 -1.0
outer loop
vertex 3.19999999999999 5.8783046359073e-016 0.0
vertex 3.12499999999999 5.41265877365275 3.60955709766131e-015
vertex 4.41941738241591 4.41941738241593 3.60955709766131e-015
endloop
endfacet
facet normal 0.0 0.0 -1.0
outer loop
vertex -1.61761903189076 -6.03703641430667 3.60955709766131e-015
vertex -1.60000000000001 -2.7712812921102 3.60955709766131e-016
vertex -5.77529135625809e-015 -6.25 3.60955709766131e-015
endloop
endfacet
facet normal 0.0 0.0 -1.0
outer loop
vertex -1.60000000000001 -2.7712812921102 3.60955709766131e-016
vertex -1.61761903189076 -6.03703641430667 3.60955709766131e-015
vertex -1.60000000000001 2.7712812921102 3.60955709766131e-016
endloop
endfacet
facet normal 0.0 0.0 -1.0
outer loop
vertex -5.77529135625809e-015 -6.25 3.60955709766131e-015
vertex -1.60000000000001 -2.7712812921102 3.60955709766131e-016
vertex -1.5 -2.81270264834752 0.0
endloop
endfacet
facet normal 0.0 0.0 -1.0
outer loop
vertex -5.77529135625809e-015 -6.25 3.60955709766131e-015
vertex -1.5 -2.81270264834752 0.0
vertex -0.828220944328072 -3.09096264412502 0.0
endloop
endfacet
facet normal 0.0 0.0 -1.0
outer loop
vertex -5.77529135625809e-015 -6.25 3.60955709766131e-015
vertex -0.828220944328072 -3.09096264412502 0.0
vertex -5.77529135625809e-015 -3.2 0.0
endloop
endfacet
facet normal 0.0 0.0 -1.0
outer loop
vertex -5.77529135625809e-015 -6.25 3.60955709766131e-015
vertex -5.77529135625809e-015 -3.2 0.0
vertex 0.828220944328063 -3.09096264412502 0.0
endloop
endfacet
facet normal 0.0 0.0 -1.0
outer loop
vertex -5.77529135625809e-015 -6.25 3.60955709766131e-015
vertex 0.828220944328063 -3.09096264412502 0.0
vertex 1.61761903189075 -6.03703641430667 3.60955709766131e-015
endloop
endfacet
facet normal 0.0 0.0 -1.0
outer loop
vertex 1.61761903189075 -6.03703641430667 3.60955709766131e-015
vertex 0.828220944328063 -3.09096264412502 0.0
vertex 1.6 -2.7712812921102 0.0
endloop
endfacet
facet normal 0.0 0.0 -1.0
outer loop
vertex 1.61761903189075 -6.03703641430667 3.60955709766131e-015
vertex 1.6 -2.7712812921102 0.0
vertex 2.26274169979695 -2.26274169979695 0.0
endloop
endfacet
facet normal 0.0 0.0 -1.0
outer loop
vertex 1.61761903189075 -6.03703641430667 3.60955709766131e-015
vertex 2.26274169979695 -2.26274169979695 0.0
vertex 3.125 -5.41265877365274 3.60955709766131e-015
endloop
endfacet
facet normal 0.0 0.0 -1.0
outer loop
vertex 3.125 -5.41265877365274 3.60955709766131e-015
vertex 2.26274169979695 -2.26274169979695 0.0
vertex 2.7712812921102 -1.6 0.0
endloop
endfacet
facet normal 0.0 0.0 -1.0
outer loop
vertex 3.125 -5.41265877365274 3.60955709766131e-015
vertex 2.7712812921102 -1.6 0.0
vertex 3.09096264412501 -0.828220944328065 0.0
endloop
endfacet
facet normal 0.0 0.0 -1.0
outer loop
vertex 3.125 -5.41265877365274 3.60955709766131e-015
vertex 3.09096264412501 -0.828220944328065 0.0
vertex 3.19999999999999 5.8783046359073e-016 0.0
endloop
endfacet
facet normal 0.0 0.0 -1.0
outer loop
vertex 3.125 -5.41265877365274 3.60955709766131e-015
vertex 3.19999999999999 5.8783046359073e-016 0.0
vertex 4.41941738241592 -4.41941738241592 3.60955709766131e-015
endloop
endfacet
facet normal 0.0 0.0 -1.0
outer loop
vertex 4.41941738241592 -4.41941738241592 3.60955709766131e-015
vertex 3.19999999999999 5.8783046359073e-016 0.0
vertex 4.41941738241591 4.41941738241593 3.60955709766131e-015
endloop
endfacet
facet normal 0.0 0.0 -1.0
outer loop
vertex 4.41941738241592 -4.41941738241592 3.60955709766131e-015
vertex 4.41941738241591 4.41941738241593 3.60955709766131e-015
vertex 5.41265877365273 3.12500000000001 3.60955709766131e-015
endloop
endfacet
facet normal 0.0 0.0 -1.0
outer loop
vertex 4.41941738241592 -4.41941738241592 3.60955709766131e-015
vertex 5.41265877365273 3.12500000000001 3.60955709766131e-015
vertex 5.41265877365274 -3.12499999999999 3.60955709766131e-015
endloop
endfacet
facet normal 0.0 0.0 -1.0
outer loop
vertex 5.41265877365274 -3.12499999999999 3.60955709766131e-015
vertex 5.41265877365273 3.12500000000001 3.60955709766131e-015
vertex 6.03703641430667 1.61761903189076 3.60955709766131e-015
endloop
endfacet
facet normal 0.0 0.0 -1.0
outer loop
vertex 5.41265877365274 -3.12499999999999 3.60955709766131e-015
vertex 6.03703641430667 1.61761903189076 3.60955709766131e-015
vertex 6.03703641430667 -1.61761903189075 3.60955709766131e-015
endloop
endfacet
facet normal 0.0 0.0 -1.0
outer loop
vertex 6.03703641430667 -1.61761903189075 3.60955709766131e-015
vertex 6.03703641430667 1.61761903189076 3.60955709766131e-015
vertex 6.24999999999999 5.05337993672583e-015 3.60955709766131e-015
endloop
endfacet
facet normal -2.15648859474655e-015 -1.0 -4.27976086342246e-019
outer loop
vertex 6.37640046261158e-015 3.1 6.75
vertex -0.802339039817808 2.99437006149611 0.0
vertex 5.97445400911071e-015 3.1 0.0
endloop
endfacet
facet normal 0.258819045102519 -0.965925826289069 -1.51666935352488e-017
outer loop
vertex -0.802339039817808 2.99437006149611 0.0
vertex 6.37640046261158e-015 3.1 6.75
vertex -0.802339039817807 2.99437006149611 6.75
endloop
endfacet
facet normal 1.0 -0.0 7.59906757402381e-017
outer loop
vertex -1.50000000000001 2.70538942985041 9.02389274415327e-017
vertex -1.50000000000001 -2.70538942985041 4.75
vertex -1.50000000000001 -2.70538942985041 1.35358391162299e-016
endloop
endfacet
facet normal 1.0 -0.0 7.59906757402381e-017
outer loop
vertex -1.50000000000001 -2.70538942985041 4.75
vertex -1.50000000000001 2.70538942985041 9.02389274415327e-017
vertex -1.50000000000001 2.70538942985041 4.75
endloop
endfacet
facet normal -0.258819045102523 -0.965925826289068 -5.41785980734815e-018
outer loop
vertex 0.802339039817821 2.99437006149611 6.75
vertex 5.97445400911071e-015 3.1 0.0
vertex 0.802339039817821 2.99437006149611 0.0
endloop
endfacet
facet normal -2.13866637495526e-015 -1.0 -4.27976086342247e-019
outer loop
vertex 5.97445400911071e-015 3.1 0.0
vertex 0.802339039817821 2.99437006149611 6.75
vertex 6.37640046261158e-015 3.1 6.75
endloop
endfacet
facet normal 0.500000000000003 0.866025403784437 -2.76166355759376e-017
outer loop
vertex -1.55 -2.68467875173176 6.75
vertex -1.50000000000001 -2.70538942985041 4.75
vertex -1.55 -2.68467875173176 4.75
endloop
endfacet
facet normal 0.382683432365092 0.923879532511286 2.17929941333849e-017
outer loop
vertex -1.50000000000001 -2.70538942985041 1.35358391162299e-016
vertex -0.802339039817822 -2.99437006149611 6.75
vertex -0.802339039817822 -2.99437006149611 0.0
endloop
endfacet
facet normal 0.258819045102523 0.965925826289068 1.01345703376581e-017
outer loop
vertex -0.802339039817822 -2.99437006149611 6.75
vertex -1.50000000000001 -2.70538942985041 1.35358391162299e-016
vertex -1.50000000000001 -2.70538942985041 4.75
endloop
endfacet
facet normal 0.258819045102523 0.965925826289068 1.01345703376581e-017
outer loop
vertex -0.802339039817822 -2.99437006149611 6.75
vertex -1.50000000000001 -2.70538942985041 4.75
vertex -1.55 -2.68467875173176 6.75
endloop
endfacet
facet normal 0.258819045102523 0.965925826289068 1.01345703376581e-017
outer loop
vertex -0.802339039817822 -2.99437006149611 6.75
vertex -1.55 -2.68467875173176 6.75
vertex -1.50000000000001 -2.70538942985041 6.75
endloop
endfacet
facet normal 0.258819045102523 0.965925826289068 1.01345703376581e-017
outer loop
vertex -0.802339039817822 -2.99437006149611 6.75
vertex -5.59481350137503e-015 -3.1 0.0
vertex -0.802339039817822 -2.99437006149611 0.0
endloop
endfacet
facet normal 2.04064416610314e-015 1.0 -2.63409628522114e-032
outer loop
vertex -5.59481350137503e-015 -3.1 0.0
vertex -0.802339039817822 -2.99437006149611 6.75
vertex -5.19286704787415e-015 -3.1 6.75
endloop
endfacet
facet normal 0.965925826289068 -0.25881904510252 3.07878273432856e-016
outer loop
vertex 6.03703641430667 -1.61761903189075 3.60955709766131e-015
vertex 5.41265877365274 -3.12499999999999 2.25
vertex 5.41265877365274 -3.12499999999999 3.60955709766131e-015
endloop
endfacet
facet normal 0.866025403784439 -0.499999999999999 2.76036108373348e-016
outer loop
vertex 5.41265877365274 -3.12499999999999 2.25
vertex 6.03703641430667 -1.61761903189075 3.60955709766131e-015
vertex 6.03703641430667 -1.61761903189075 2.25
endloop
endfacet
facet normal -0.258819045102519 0.965925826289069 -6.67262220335465e-018
outer loop
vertex 0.802339039817809 -2.99437006149611 6.75
vertex 1.54999999999999 -2.68467875173176 0.0
vertex 0.802339039817809 -2.99437006149611 0.0
endloop
endfacet
facet normal -0.499999999999998 0.86602540378444 -1.95048067078943e-017
outer loop
vertex 1.54999999999999 -2.68467875173176 0.0
vertex 0.802339039817809 -2.99437006149611 6.75
vertex 1.54999999999999 -2.68467875173176 6.75
endloop
endfacet
facet normal 1.0 2.49511077078113e-016 3.18739042950818e-016
outer loop
vertex 6.24999999999999 5.05337993672583e-015 3.60955709766131e-015
vertex 6.03703641430667 -1.61761903189075 2.25
vertex 6.03703641430667 -1.61761903189075 3.60955709766131e-015
endloop
endfacet
facet normal 0.965925826289068 -0.25881904510252 3.07878273432856e-016
outer loop
vertex 6.03703641430667 -1.61761903189075 2.25
vertex 6.24999999999999 5.05337993672583e-015 3.60955709766131e-015
vertex 6.24999999999999 5.05337993672583e-015 2.25
endloop
endfacet
facet normal -0.258819045102521 0.965925826289068 -1.00789813898776e-016
outer loop
vertex -1.61761903189076 6.03703641430668 2.25
vertex -6.49720277579036e-015 6.25 3.60955709766131e-015
vertex -1.61761903189076 6.03703641430668 3.60955709766131e-015
endloop
endfacet
facet normal 8.01999890608221e-017 1.0 -9.53699797342987e-018
outer loop
vertex -6.49720277579036e-015 6.25 3.60955709766131e-015
vertex -1.61761903189076 6.03703641430668 2.25
vertex -6.49720277579036e-015 6.25 2.25
endloop
endfacet
facet normal 0.866025403784439 0.5 2.76036108373348e-016
outer loop
vertex 5.41265877365273 3.12500000000001 3.60955709766131e-015
vertex 6.03703641430667 1.61761903189076 2.25
vertex 6.03703641430667 1.61761903189076 3.60955709766131e-015
endloop
endfacet
facet normal 0.965925826289068 0.258819045102521 3.07878273432856e-016
outer loop
vertex 6.03703641430667 1.61761903189076 2.25
vertex 5.41265877365273 3.12500000000001 3.60955709766131e-015
vertex 5.41265877365273 3.12500000000001 2.25
endloop
endfacet
facet normal 0.258819045102521 -0.965925826289068 -5.72219878405794e-018
outer loop
vertex 1.61761903189075 -6.03703641430667 2.25
vertex -5.77529135625809e-015 -6.25 3.60955709766131e-015
vertex 1.61761903189075 -6.03703641430667 3.60955709766131e-015
endloop
endfacet
facet normal 2.04955527599879e-016 -1.0 -1.14443975681159e-017
outer loop
vertex -5.77529135625809e-015 -6.25 3.60955709766131e-015
vertex 1.61761903189075 -6.03703641430667 2.25
vertex -5.77529135625809e-015 -6.25 2.25
endloop
endfacet
facet normal 2.02282194631185e-015 1.0 -2.60936298676836e-032
outer loop
vertex -5.19286704787415e-015 -3.1 6.75
vertex 0.802339039817809 -2.99437006149611 0.0
vertex -5.59481350137503e-015 -3.1 0.0
endloop
endfacet
facet normal -0.258819045102519 0.965925826289069 -6.67262220335465e-018
outer loop
vertex 0.802339039817809 -2.99437006149611 0.0
vertex -5.19286704787415e-015 -3.1 6.75
vertex 0.802339039817809 -2.99437006149611 6.75
endloop
endfacet
facet normal -0.866025403784439 0.5 -4.77817840767972e-016
outer loop
vertex -5.41265877365275 3.125 2.25
vertex -6.03703641430668 1.61761903189076 3.60955709766131e-015
vertex -6.03703641430668 1.61761903189076 2.25
endloop
endfacet
facet normal -0.965925826289068 0.258819045102521 -3.82132649411579e-016
outer loop
vertex -6.03703641430668 1.61761903189076 3.60955709766131e-015
vertex -5.41265877365275 3.125 2.25
vertex -5.41265877365275 3.125 3.60955709766131e-015
endloop
endfacet
facet normal 8.01999890608221e-017 1.0 -9.53699797342987e-018
outer loop
vertex -6.49720277579036e-015 6.25 2.25
vertex 1.61761903189075 6.03703641430668 3.60955709766131e-015
vertex -6.49720277579036e-015 6.25 3.60955709766131e-015
endloop
endfacet
facet normal 0.258819045102521 0.965925826289068 -3.81479918937195e-018
outer loop
vertex 1.61761903189075 6.03703641430668 3.60955709766131e-015
vertex -6.49720277579036e-015 6.25 2.25
vertex 1.61761903189075 6.03703641430668 2.25
endloop
endfacet
facet normal 0.866025403784439 -0.499999999999999 2.76036108373348e-016
outer loop
vertex 5.41265877365274 -3.12499999999999 3.60955709766131e-015
vertex 4.41941738241592 -4.41941738241592 2.25
vertex 4.41941738241592 -4.41941738241592 3.60955709766131e-015
endloop
endfacet
facet normal 0.707106781186548 -0.707106781186547 1.98694761713016e-016
outer loop
vertex 4.41941738241592 -4.41941738241592 2.25
vertex 5.41265877365274 -3.12499999999999 3.60955709766131e-015
vertex 5.41265877365274 -3.12499999999999 2.25
endloop
endfacet
facet normal -0.707106781186548 0.707106781186547 -4.77452854385286e-016
outer loop
vertex -4.41941738241593 4.41941738241592 2.25
vertex -3.12500000000001 5.41265877365274 3.60955709766131e-015
vertex -4.41941738241593 4.41941738241592 3.60955709766131e-015
endloop
endfacet
facet normal -0.5 0.866025403784439 -3.17465756668201e-016
outer loop
vertex -3.12500000000001 5.41265877365274 3.60955709766131e-015
vertex -4.41941738241593 4.41941738241592 2.25
vertex -3.12500000000001 5.41265877365274 2.25
endloop
endfacet
facet normal -0.707106781186548 0.707106781186547 -4.77452854385286e-016
outer loop
vertex -4.41941738241593 4.41941738241592 2.25
vertex -5.41265877365275 3.125 3.60955709766131e-015
vertex -5.41265877365275 3.125 2.25
endloop
endfacet
facet normal -0.866025403784439 0.5 -4.77817840767972e-016
outer loop
vertex -5.41265877365275 3.125 3.60955709766131e-015
vertex -4.41941738241593 4.41941738241592 2.25
vertex -4.41941738241593 4.41941738241592 3.60955709766131e-015
endloop
endfacet
facet normal 0.965925826289068 0.258819045102521 3.07878273432856e-016
outer loop
vertex 6.03703641430667 1.61761903189076 3.60955709766131e-015
vertex 6.24999999999999 5.05337993672583e-015 2.25
vertex 6.24999999999999 5.05337993672583e-015 3.60955709766131e-015
endloop
endfacet
facet normal 1.0 2.49511077078113e-016 3.18739042950818e-016
outer loop
vertex 6.24999999999999 5.05337993672583e-015 2.25
vertex 6.03703641430667 1.61761903189076 3.60955709766131e-015
vertex 6.03703641430667 1.61761903189076 2.25
endloop
endfacet
facet normal -0.258819045102521 -0.965925826289068 -8.40131759373551e-017
outer loop
vertex -1.61761903189076 -6.03703641430667 2.25
vertex -3.12500000000001 -5.41265877365274 3.60955709766131e-015
vertex -1.61761903189076 -6.03703641430667 3.60955709766131e-015
endloop
endfacet
facet normal -0.5 -0.866025403784439 -2.29521713409666e-016
outer loop
vertex -3.12500000000001 -5.41265877365274 3.60955709766131e-015
vertex -1.61761903189076 -6.03703641430667 2.25
vertex -3.12500000000001 -5.41265877365274 2.25
endloop
endfacet
facet normal 0.707106781186547 0.707106781186548 1.98694761713016e-016
outer loop
vertex 4.41941738241591 4.41941738241593 3.60955709766131e-015
vertex 5.41265877365273 3.12500000000001 2.25
vertex 5.41265877365273 3.12500000000001 3.60955709766131e-015
endloop
endfacet
facet normal 0.866025403784439 0.5 2.76036108373348e-016
outer loop
vertex 5.41265877365273 3.12500000000001 2.25
vertex 4.41941738241591 4.41941738241593 3.60955709766131e-015
vertex 4.41941738241591 4.41941738241593 2.25
endloop
endfacet
facet normal -0.5 -0.866025403784439 -2.29521713409666e-016
outer loop
vertex -3.12500000000001 -5.41265877365274 2.25
vertex -4.41941738241593 -4.41941738241592 3.60955709766131e-015
vertex -3.12500000000001 -5.41265877365274 3.60955709766131e-015
endloop
endfacet
facet normal -0.707106781186547 -0.707106781186548 -3.4252177088022e-016
outer loop
vertex -4.41941738241593 -4.41941738241592 3.60955709766131e-015
vertex -3.12500000000001 -5.41265877365274 2.25
vertex -4.41941738241593 -4.41941738241592 2.25
endloop
endfacet
facet normal 0.5 0.866025403784439 7.11674052971146e-017
outer loop
vertex 3.12499999999999 5.41265877365275 2.25
vertex 4.41941738241591 4.41941738241593 3.60955709766131e-015
vertex 3.12499999999999 5.41265877365275 3.60955709766131e-015
endloop
endfacet
facet normal 0.707106781186547 0.707106781186548 1.98694761713016e-016
outer loop
vertex 4.41941738241591 4.41941738241593 3.60955709766131e-015
vertex 3.12499999999999 5.41265877365275 2.25
vertex 4.41941738241591 4.41941738241593 2.25
endloop
endfacet
facet normal 0.500000000000001 -0.866025403784438 7.11674052971147e-017
outer loop
vertex 3.125 -5.41265877365274 2.25
vertex 1.61761903189075 -6.03703641430667 3.60955709766131e-015
vertex 3.125 -5.41265877365274 3.60955709766131e-015
endloop
endfacet
facet normal 0.258819045102521 -0.965925826289068 -5.72219878405794e-018
outer loop
vertex 1.61761903189075 -6.03703641430667 3.60955709766131e-015
vertex 3.125 -5.41265877365274 2.25
vertex 1.61761903189075 -6.03703641430667 2.25
endloop
endfacet
facet normal 2.04955527599879e-016 -1.0 -1.14443975681159e-017
outer loop
vertex -5.77529135625809e-015 -6.25 2.25
vertex -1.61761903189076 -6.03703641430667 3.60955709766131e-015
vertex -5.77529135625809e-015 -6.25 3.60955709766131e-015
endloop
endfacet
facet normal -0.258819045102521 -0.965925826289068 -8.40131759373551e-017
outer loop
vertex -1.61761903189076 -6.03703641430667 3.60955709766131e-015
vertex -5.77529135625809e-015 -6.25 2.25
vertex -1.61761903189076 -6.03703641430667 2.25
endloop
endfacet
facet normal -0.499999999999998 0.86602540378444 -1.95048067078943e-017
outer loop
vertex 1.54999999999999 -2.68467875173176 6.75
vertex 2.19203102167829 -2.1920310216783 0.0
vertex 1.54999999999999 -2.68467875173176 0.0
endloop
endfacet
facet normal -0.707106781186546 0.707106781186549 -1.19762323318551e-017
outer loop
vertex 2.19203102167829 -2.1920310216783 0.0
vertex 1.54999999999999 -2.68467875173176 6.75
vertex 2.19203102167829 -2.1920310216783 6.75
endloop
endfacet
facet normal -0.5 0.866025403784438 -3.17465756668202e-016
outer loop
vertex -3.12500000000001 5.41265877365274 2.25
vertex -1.61761903189076 6.03703641430668 3.60955709766131e-015
vertex -3.12500000000001 5.41265877365274 3.60955709766131e-015
endloop
endfacet
facet normal -0.258819045102521 0.965925826289068 -1.00789813898776e-016
outer loop
vertex -1.61761903189076 6.03703641430668 3.60955709766131e-015
vertex -3.12500000000001 5.41265877365274 2.25
vertex -1.61761903189076 6.03703641430668 2.25
endloop
endfacet
facet normal -0.965925826289068 -0.258819045102521 -5.36071786128007e-016
outer loop
vertex -6.03703641430668 -1.61761903189075 2.25
vertex -5.41265877365275 -3.125 3.60955709766131e-015
vertex -5.41265877365275 -3.125 2.25
endloop
endfacet
facet normal -0.866025403784439 -0.5 -4.88308538538745e-016
outer loop
vertex -5.41265877365275 -3.125 3.60955709766131e-015
vertex -6.03703641430668 -1.61761903189075 2.25
vertex -6.03703641430668 -1.61761903189075 3.60955709766131e-015
endloop
endfacet
facet normal -0.965925826289068 0.258819045102523 0.0
outer loop
vertex 2.99437006149611 -0.80233903981782 6.75
vertex 2.68467875173176 -1.55 0.0
vertex 2.68467875173176 -1.55 6.75
endloop
endfacet
facet normal -0.866025403784438 0.500000000000002 0.0
outer loop
vertex 2.68467875173176 -1.55 0.0
vertex 2.99437006149611 -0.80233903981782 6.75
vertex 2.99437006149611 -0.80233903981782 0.0
endloop
endfacet
facet normal -0.866025403784439 -0.5 -4.88308538538745e-016
outer loop
vertex -5.41265877365275 -3.125 2.25
vertex -4.41941738241593 -4.41941738241592 3.60955709766131e-015
vertex -4.41941738241593 -4.41941738241592 2.25
endloop
endfacet
facet normal -0.707106781186547 -0.707106781186548 -3.4252177088022e-016
outer loop
vertex -4.41941738241593 -4.41941738241592 3.60955709766131e-015
vertex -5.41265877365275 -3.125 2.25
vertex -5.41265877365275 -3.125 3.60955709766131e-015
endloop
endfacet
facet normal -0.866025403784438 0.500000000000002 0.0
outer loop
vertex 2.68467875173176 -1.55 6.75
vertex 2.19203102167829 -2.1920310216783 0.0
vertex 2.19203102167829 -2.1920310216783 6.75
endloop
endfacet
facet normal -0.707106781186546 0.707106781186549 -1.19762323318551e-017
outer loop
vertex 2.19203102167829 -2.1920310216783 0.0
vertex 2.68467875173176 -1.55 6.75
vertex 2.68467875173176 -1.55 0.0
endloop
endfacet
facet normal -1.0 -1.24755538539057e-016 -3.98423803688523e-016
outer loop
vertex -6.25000000000001 2.88764567812905e-015 2.25
vertex -6.03703641430668 -1.61761903189075 3.60955709766131e-015
vertex -6.03703641430668 -1.61761903189075 2.25
endloop
endfacet
facet normal -0.965925826289068 -0.258819045102521 -5.36071786128007e-016
outer loop
vertex -6.03703641430668 -1.61761903189075 3.60955709766131e-015
vertex -6.25000000000001 2.88764567812905e-015 2.25
vertex -6.25000000000001 2.88764567812905e-015 3.60955709766131e-015
endloop
endfacet
facet normal 0.258819045102521 0.965925826289068 -3.81479918937195e-018
outer loop
vertex 1.61761903189075 6.03703641430668 2.25
vertex 3.12499999999999 5.41265877365275 3.60955709766131e-015
vertex 1.61761903189075 6.03703641430668 3.60955709766131e-015
endloop
endfacet
facet normal 0.5 0.866025403784439 7.11674052971146e-017
outer loop
vertex 3.12499999999999 5.41265877365275 3.60955709766131e-015
vertex 1.61761903189075 6.03703641430668 2.25
vertex 3.12499999999999 5.41265877365275 2.25
endloop
endfacet
facet normal -0.965925826289068 0.258819045102521 -3.82132649411579e-016
outer loop
vertex -6.03703641430668 1.61761903189076 2.25
vertex -6.25000000000001 2.88764567812905e-015 3.60955709766131e-015
vertex -6.25000000000001 2.88764567812905e-015 2.25
endloop
endfacet
facet normal -1.0 -1.24755538539057e-016 -3.98423803688523e-016
outer loop
vertex -6.25000000000001 2.88764567812905e-015 3.60955709766131e-015
vertex -6.03703641430668 1.61761903189076 2.25
vertex -6.03703641430668 1.61761903189076 3.60955709766131e-015
endloop
endfacet
facet normal 0.707106781186548 -0.707106781186547 1.98694761713016e-016
outer loop
vertex 4.41941738241592 -4.41941738241592 2.25
vertex 3.125 -5.41265877365274 3.60955709766131e-015
vertex 4.41941738241592 -4.41941738241592 3.60955709766131e-015
endloop
endfacet
facet normal 0.500000000000001 -0.866025403784438 7.11674052971148e-017
outer loop
vertex 3.125 -5.41265877365274 3.60955709766131e-015
vertex 4.41941738241592 -4.41941738241592 2.25
vertex 3.125 -5.41265877365274 2.25
endloop
endfacet
facet normal 2.72247116651946e-017 1.8305093987774e-018 1.0
outer loop
vertex -1.5 -2.81270264834752 0.0
vertex -1.50000000000001 -2.70538942985041 1.35358391162299e-016
vertex -1.60000000000001 -2.7712812921102 3.60955709766131e-016
endloop
endfacet
facet normal 2.72247116651946e-017 1.8305093987774e-018 1.0
outer loop
vertex -1.50000000000001 -2.70538942985041 1.35358391162299e-016
vertex -1.5 -2.81270264834752 0.0
vertex -0.802339039817822 -2.99437006149611 0.0
endloop
endfacet
facet normal 2.72247116651946e-017 1.8305093987774e-018 1.0
outer loop
vertex -0.802339039817822 -2.99437006149611 0.0
vertex -1.5 -2.81270264834752 0.0
vertex -0.828220944328072 -3.09096264412502 0.0
endloop
endfacet
facet normal 2.72247116651946e-017 1.8305093987774e-018 1.0
outer loop
vertex -0.802339039817822 -2.99437006149611 0.0
vertex -0.828220944328072 -3.09096264412502 0.0
vertex -5.77529135625809e-015 -3.2 0.0
endloop
endfacet
facet normal 2.72247116651946e-017 1.8305093987774e-018 1.0
outer loop
vertex -0.802339039817822 -2.99437006149611 0.0
vertex -5.77529135625809e-015 -3.2 0.0
vertex -5.59481350137503e-015 -3.1 0.0
endloop
endfacet
facet normal 2.72247116651946e-017 1.8305093987774e-018 1.0
outer loop
vertex -5.59481350137503e-015 -3.1 0.0
vertex -5.77529135625809e-015 -3.2 0.0
vertex 0.828220944328063 -3.09096264412502 0.0
endloop
endfacet
facet normal 2.72247116651946e-017 1.8305093987774e-018 1.0
outer loop
vertex -5.59481350137503e-015 -3.1 0.0
vertex 0.828220944328063 -3.09096264412502 0.0
vertex 0.802339039817809 -2.99437006149611 0.0
endloop
endfacet
facet normal 2.72247116651946e-017 1.8305093987774e-018 1.0
outer loop
vertex 0.802339039817809 -2.99437006149611 0.0
vertex 0.828220944328063 -3.09096264412502 0.0
vertex 1.54999999999999 -2.68467875173176 0.0
endloop
endfacet
facet normal 2.72247116651946e-017 1.8305093987774e-018 1.0
outer loop
vertex 1.54999999999999 -2.68467875173176 0.0
vertex 0.828220944328063 -3.09096264412502 0.0
vertex 1.6 -2.7712812921102 0.0
endloop
endfacet
facet normal 2.72247116651946e-017 1.8305093987774e-018 1.0
outer loop
vertex 1.54999999999999 -2.68467875173176 0.0
vertex 1.6 -2.7712812921102 0.0
vertex 2.19203102167829 -2.1920310216783 0.0
endloop
endfacet
facet normal 2.72247116651946e-017 1.8305093987774e-018 1.0
outer loop
vertex 2.19203102167829 -2.1920310216783 0.0
vertex 1.6 -2.7712812921102 0.0
vertex 2.26274169979695 -2.26274169979695 0.0
endloop
endfacet
facet normal 2.72247116651946e-017 1.8305093987774e-018 1.0
outer loop
vertex 2.19203102167829 -2.1920310216783 0.0
vertex 2.26274169979695 -2.26274169979695 0.0
vertex 2.68467875173176 -1.55 0.0
endloop
endfacet
facet normal 2.72247116651946e-017 1.8305093987774e-018 1.0
outer loop
vertex 2.68467875173176 -1.55 0.0
vertex 2.26274169979695 -2.26274169979695 0.0
vertex 2.7712812921102 -1.6 0.0
endloop
endfacet
facet normal 2.72247116651946e-017 1.8305093987774e-018 1.0
outer loop
vertex 2.68467875173176 -1.55 0.0
vertex 2.7712812921102 -1.6 0.0
vertex 2.99437006149611 -0.80233903981782 0.0
endloop
endfacet
facet normal 2.72247116651946e-017 1.8305093987774e-018 1.0
outer loop
vertex 2.99437006149611 -0.80233903981782 0.0
vertex 2.7712812921102 -1.6 0.0
vertex 3.09096264412501 -0.828220944328065 0.0
endloop
endfacet
facet normal 2.72247116651946e-017 1.8305093987774e-018 1.0
outer loop
vertex 2.99437006149611 -0.80233903981782 0.0
vertex 3.09096264412501 -0.828220944328065 0.0
vertex 3.1 -5.78463375524287e-015 0.0
endloop
endfacet
facet normal 2.72247116651946e-017 1.8305093987774e-018 1.0
outer loop
vertex 3.1 -5.78463375524287e-015 0.0
vertex 3.09096264412501 -0.828220944328065 0.0
vertex 3.19999999999999 5.8783046359073e-016 0.0
endloop
endfacet
facet normal 2.72247116651946e-017 1.8305093987774e-018 1.0
outer loop
vertex -1.60000000000001 -2.7712812921102 3.60955709766131e-016
vertex -1.5 2.81270264834752 0.0
vertex -1.60000000000001 2.7712812921102 3.60955709766131e-016
endloop
endfacet
facet normal 2.72247116651946e-017 1.8305093987774e-018 1.0
outer loop
vertex -1.5 2.81270264834752 0.0
vertex -1.60000000000001 -2.7712812921102 3.60955709766131e-016
vertex -1.50000000000001 2.70538942985041 9.02389274415327e-017
endloop
endfacet
facet normal 2.72247116651946e-017 1.8305093987774e-018 1.0
outer loop
vertex -1.50000000000001 2.70538942985041 9.02389274415327e-017
vertex -1.60000000000001 -2.7712812921102 3.60955709766131e-016
vertex -1.50000000000001 -2.70538942985041 1.35358391162299e-016
endloop
endfacet
facet normal 2.72247116651946e-017 1.8305093987774e-018 1.0
outer loop
vertex -1.5 2.81270264834752 0.0
vertex -1.50000000000001 2.70538942985041 9.02389274415327e-017
vertex -0.802339039817808 2.99437006149611 0.0
endloop
endfacet
facet normal 2.72247116651946e-017 1.8305093987774e-018 1.0
outer loop
vertex -1.5 2.81270264834752 0.0
vertex -0.802339039817808 2.99437006149611 0.0
vertex -0.828220944328073 3.09096264412502 0.0
endloop
endfacet
facet normal 2.72247116651946e-017 1.8305093987774e-018 1.0
outer loop
vertex -0.828220944328073 3.09096264412502 0.0
vertex -0.802339039817808 2.99437006149611 0.0
vertex -6.16717833198525e-015 3.2 0.0
endloop
endfacet
facet normal 2.72247116651946e-017 1.8305093987774e-018 1.0
outer loop
vertex -6.16717833198525e-015 3.2 0.0
vertex -0.802339039817808 2.99437006149611 0.0
vertex 5.97445400911071e-015 3.1 0.0
endloop
endfacet
facet normal 2.72247116651946e-017 1.8305093987774e-018 1.0
outer loop
vertex -6.16717833198525e-015 3.2 0.0
vertex 5.97445400911071e-015 3.1 0.0
vertex 0.828220944328059 3.09096264412502 0.0
endloop
endfacet
facet normal 2.72247116651946e-017 1.8305093987774e-018 1.0
outer loop
vertex 0.828220944328059 3.09096264412502 0.0
vertex 5.97445400911071e-015 3.1 0.0
vertex 0.802339039817821 2.99437006149611 0.0
endloop
endfacet
facet normal 2.72247116651946e-017 1.8305093987774e-018 1.0
outer loop
vertex 0.828220944328059 3.09096264412502 0.0
vertex 0.802339039817821 2.99437006149611 0.0
vertex 1.55000000000001 2.68467875173176 0.0
endloop
endfacet
facet normal 2.72247116651946e-017 1.8305093987774e-018 1.0
outer loop
vertex 0.828220944328059 3.09096264412502 0.0
vertex 1.55000000000001 2.68467875173176 0.0
vertex 1.59999999999999 2.7712812921102 0.0
endloop
endfacet
facet normal 2.72247116651946e-017 1.8305093987774e-018 1.0
outer loop
vertex 1.59999999999999 2.7712812921102 0.0
vertex 1.55000000000001 2.68467875173176 0.0
vertex 2.1920310216783 2.19203102167829 0.0
endloop
endfacet
facet normal 2.72247116651946e-017 1.8305093987774e-018 1.0
outer loop
vertex 1.59999999999999 2.7712812921102 0.0
vertex 2.1920310216783 2.19203102167829 0.0
vertex 2.26274169979694 2.26274169979695 0.0
endloop
endfacet
facet normal 2.72247116651946e-017 1.8305093987774e-018 1.0
outer loop
vertex 2.26274169979694 2.26274169979695 0.0
vertex 2.1920310216783 2.19203102167829 0.0
vertex 2.68467875173176 1.54999999999999 0.0
endloop
endfacet
facet normal 2.72247116651946e-017 1.8305093987774e-018 1.0
outer loop
vertex 2.26274169979694 2.26274169979695 0.0
vertex 2.68467875173176 1.54999999999999 0.0
vertex 2.7712812921102 1.6 0.0
endloop
endfacet
facet normal 2.72247116651946e-017 1.8305093987774e-018 1.0
outer loop
vertex 2.7712812921102 1.6 0.0
vertex 2.68467875173176 1.54999999999999 0.0
vertex 2.99437006149611 0.802339039817808 0.0
endloop
endfacet
facet normal 2.72247116651946e-017 1.8305093987774e-018 1.0
outer loop
vertex 2.7712812921102 1.6 0.0
vertex 2.99437006149611 0.802339039817808 0.0
vertex 3.09096264412501 0.828220944328069 0.0
endloop
endfacet
facet normal 2.72247116651946e-017 1.8305093987774e-018 1.0
outer loop
vertex 3.09096264412501 0.828220944328069 0.0
vertex 2.99437006149611 0.802339039817808 0.0
vertex 3.1 -5.78463375524287e-015 0.0
endloop
endfacet
facet normal 2.72247116651946e-017 1.8305093987774e-018 1.0
outer loop
vertex 3.09096264412501 0.828220944328069 0.0
vertex 3.1 -5.78463375524287e-015 0.0
vertex 3.19999999999999 5.8783046359073e-016 0.0
endloop
endfacet
facet normal -1.0 1.96044417704232e-015 0.0
outer loop
vertex 3.1 -5.79808826157287e-015 6.75
vertex 2.99437006149611 -0.80233903981782 0.0
vertex 2.99437006149611 -0.80233903981782 6.75
endloop
endfacet
facet normal -0.965925826289068 0.258819045102523 0.0
outer loop
vertex 2.99437006149611 -0.80233903981782 0.0
vertex 3.1 -5.79808826157287e-015 6.75
vertex 3.1 -5.78463375524287e-015 0.0
endloop
endfacet
facet normal -0.965925826289069 -0.258819045102519 0.0
outer loop
vertex 2.99437006149611 0.802339039817808 6.75
vertex 3.1 -5.78463375524287e-015 0.0
vertex 3.1 -5.79808826157287e-015 6.75
endloop
endfacet
facet normal -1.0 1.96044417704232e-015 0.0
outer loop
vertex 3.1 -5.78463375524287e-015 0.0
vertex 2.99437006149611 0.802339039817808 6.75
vertex 2.99437006149611 0.802339039817808 0.0
endloop
endfacet
facet normal -0.707106781186549 -0.707106781186546 -1.19762323318552e-017
outer loop
vertex 2.1920310216783 2.19203102167829 6.75
vertex 2.68467875173176 1.54999999999999 0.0
vertex 2.68467875173176 1.54999999999999 6.75
endloop
endfacet
facet normal -0.86602540378444 -0.499999999999998 0.0
outer loop
vertex 2.68467875173176 1.54999999999999 0.0
vertex 2.1920310216783 2.19203102167829 6.75
vertex 2.1920310216783 2.19203102167829 0.0
endloop
endfacet
facet normal 0.866025403784438 0.500000000000001 7.42543759787232e-017
outer loop
vertex 5.41265877365273 3.125 4.5
vertex 6.03703641430667 1.61761903189076 6.75
vertex 6.03703641430667 1.61761903189076 4.5
endloop
endfacet
facet normal 0.965925826289068 0.258819045102521 2.35434914743625e-016
outer loop
vertex 6.03703641430667 1.61761903189076 6.75
vertex 5.41265877365273 3.125 4.5
vertex 5.41265877365273 3.125 6.75
endloop
endfacet
facet normal 1.0 3.20799956243289e-016 2.40865299502606e-016
outer loop
vertex 6.24999999999999 1.14810637420064e-015 4.5
vertex 6.03703641430667 -1.61761903189075 6.75
vertex 6.03703641430667 -1.61761903189075 4.5
endloop
endfacet
facet normal 0.965925826289068 -0.25881904510252 1.53939136716427e-016
outer loop
vertex 6.03703641430667 -1.61761903189075 6.75
vertex 6.24999999999999 1.14810637420064e-015 4.5
vertex 6.24999999999999 1.14810637420064e-015 6.75
endloop
endfacet
facet normal -0.86602540378444 -0.499999999999998 0.0
outer loop
vertex 2.68467875173176 1.54999999999999 6.75
vertex 2.99437006149611 0.802339039817808 0.0
vertex 2.99437006149611 0.802339039817808 6.75
endloop
endfacet
facet normal -0.965925826289069 -0.258819045102519 0.0
outer loop
vertex 2.99437006149611 0.802339039817808 0.0
vertex 2.68467875173176 1.54999999999999 6.75
vertex 2.68467875173176 1.54999999999999 0.0
endloop
endfacet
facet normal -0.866025403784439 -0.5 -6.37636782079503e-017
outer loop
vertex -5.41265877365275 -3.125 6.75
vertex -4.41941738241593 -4.41941738241592 4.5
vertex -4.41941738241593 -4.41941738241592 6.75
endloop
endfacet
facet normal -0.707106781186547 -0.707106781186548 -1.08243306518647e-016
outer loop
vertex -4.41941738241593 -4.41941738241592 4.5
vertex -5.41265877365275 -3.125 6.75
vertex -5.41265877365275 -3.125 4.5
endloop
endfacet
facet normal -0.707106781186549 -0.707106781186546 -1.19762323318552e-017
outer loop
vertex 2.1920310216783 2.19203102167829 6.75
vertex 1.55000000000001 2.68467875173176 0.0
vertex 2.1920310216783 2.19203102167829 0.0
endloop
endfacet
facet normal -0.500000000000002 -0.866025403784438 -1.82500443118879e-017
outer loop
vertex 1.55000000000001 2.68467875173176 0.0
vertex 2.1920310216783 2.19203102167829 6.75
vertex 1.55000000000001 2.68467875173176 6.75
endloop
endfacet
facet normal -0.965925826289068 0.258819045102521 -2.42185312559873e-016
outer loop
vertex -6.03703641430668 1.61761903189075 6.75
vertex -6.25000000000001 -3.82702124733548e-016 4.5
vertex -6.25000000000001 -3.82702124733548e-016 6.75
endloop
endfacet
facet normal -1.0 -4.45555494782345e-017 -2.40865299502606e-016
outer loop
vertex -6.25000000000001 -3.82702124733548e-016 4.5
vertex -6.03703641430668 1.61761903189075 6.75
vertex -6.03703641430668 1.61761903189075 4.5
endloop
endfacet
facet normal 0.707106781186547 0.707106781186548 0.0
outer loop
vertex 4.41941738241591 4.41941738241592 4.5
vertex 5.41265877365273 3.125 6.75
vertex 5.41265877365273 3.125 4.5
endloop
endfacet
facet normal 0.866025403784438 0.500000000000001 7.42543759787232e-017
outer loop
vertex 5.41265877365273 3.125 6.75
vertex 4.41941738241591 4.41941738241592 4.5
vertex 4.41941738241591 4.41941738241592 6.75
endloop
endfacet
facet normal 0.866025403784439 -0.499999999999999 2.01781732394624e-016
outer loop
vertex 5.41265877365274 -3.125 4.5
vertex 4.41941738241592 -4.41941738241592 6.75
vertex 4.41941738241592 -4.41941738241592 4.5
endloop
endfacet
facet normal 0.707106781186548 -0.707106781186547 2.07590687375155e-016
outer loop
vertex 4.41941738241592 -4.41941738241592 6.75
vertex 5.41265877365274 -3.125 4.5
vertex 5.41265877365274 -3.125 6.75
endloop
endfacet
facet normal -1.0 -4.45555494782345e-017 -2.40865299502606e-016
outer loop
vertex -6.25000000000001 -3.82702124733548e-016 6.75
vertex -6.03703641430668 -1.61761903189076 4.5
vertex -6.03703641430668 -1.61761903189076 6.75
endloop
endfacet
facet normal -0.965925826289068 -0.258819045102521 -7.96847607377043e-017
outer loop
vertex -6.03703641430668 -1.61761903189076 4.5
vertex -6.25000000000001 -3.82702124733548e-016 6.75
vertex -6.25000000000001 -3.82702124733548e-016 4.5
endloop
endfacet
facet normal -0.707106781186548 0.707106781186547 -2.6687776986418e-017
outer loop
vertex -4.41941738241593 4.41941738241592 6.75
vertex -5.41265877365275 3.125 4.5
vertex -5.41265877365275 3.125 6.75
endloop
endfacet
facet normal -0.866025403784439 0.5 -8.10047737949707e-017
outer loop
vertex -5.41265877365275 3.125 4.5
vertex -4.41941738241593 4.41941738241592 6.75
vertex -4.41941738241593 4.41941738241592 4.5
endloop
endfacet
facet normal 0.965925826289068 -0.25881904510252 1.53939136716427e-016
outer loop
vertex 6.03703641430667 -1.61761903189075 4.5
vertex 5.41265877365274 -3.125 6.75
vertex 5.41265877365274 -3.125 4.5
endloop
endfacet
facet normal 0.866025403784439 -0.499999999999999 2.01781732394624e-016
outer loop
vertex 5.41265877365274 -3.125 6.75
vertex 6.03703641430667 -1.61761903189075 4.5
vertex 6.03703641430667 -1.61761903189075 6.75
endloop
endfacet
facet normal -0.707106781186548 0.707106781186547 -2.6687776986418e-017
outer loop
vertex -4.41941738241593 4.41941738241592 6.75
vertex -3.12500000000001 5.41265877365274 4.5
vertex -4.41941738241593 4.41941738241592 4.5
endloop
endfacet
facet normal -0.5 0.866025403784439 -4.34644149478387e-017
outer loop
vertex -3.12500000000001 5.41265877365274 4.5
vertex -4.41941738241593 4.41941738241592 6.75
vertex -3.12500000000001 5.41265877365274 6.75
endloop
endfacet
facet normal 0.258819045102521 -0.965925826289068 3.92754747068995e-017
outer loop
vertex 1.61761903189075 -6.03703641430668 6.75
vertex -5.77529135625809e-015 -6.25 4.5
vertex 1.61761903189075 -6.03703641430668 4.5
endloop
endfacet
facet normal 2.22777747391173e-016 -1.0 5.72219878405793e-018
outer loop
vertex -5.77529135625809e-015 -6.25 4.5
vertex 1.61761903189075 -6.03703641430668 6.75
vertex -5.77529135625809e-015 -6.25 6.75
endloop
endfacet
facet normal 0.5 -0.866025403784438 1.13616606882095e-016
outer loop
vertex 3.125 -5.41265877365274 6.75
vertex 1.61761903189075 -6.03703641430668 4.5
vertex 3.125 -5.41265877365274 4.5
endloop
endfacet
facet normal 0.258819045102521 -0.965925826289068 3.92754747068995e-017
outer loop
vertex 1.61761903189075 -6.03703641430668 4.5
vertex 3.125 -5.41265877365274 6.75
vertex 1.61761903189075 -6.03703641430668 6.75
endloop
endfacet
facet normal -0.866025403784439 0.5 -8.10047737949707e-017
outer loop
vertex -5.41265877365275 3.125 6.75
vertex -6.03703641430668 1.61761903189075 4.5
vertex -6.03703641430668 1.61761903189075 6.75
endloop
endfacet
facet normal -0.965925826289068 0.258819045102521 -2.42185312559873e-016
outer loop
vertex -6.03703641430668 1.61761903189075 4.5
vertex -5.41265877365275 3.125 6.75
vertex -5.41265877365275 3.125 4.5
endloop
endfacet
facet normal -0.965925826289068 -0.258819045102521 -7.96847607377043e-017
outer loop
vertex -6.03703641430668 -1.61761903189076 6.75
vertex -5.41265877365275 -3.125 4.5
vertex -5.41265877365275 -3.125 6.75
endloop
endfacet
facet normal -0.866025403784439 -0.5 -6.37636782079503e-017
outer loop
vertex -5.41265877365275 -3.125 4.5
vertex -6.03703641430668 -1.61761903189076 6.75
vertex -6.03703641430668 -1.61761903189076 4.5
endloop
endfacet
facet normal -0.5 0.866025403784439 -4.34644149478387e-017
outer loop
vertex -3.12500000000001 5.41265877365274 6.75
vertex -1.61761903189076 6.03703641430668 4.5
vertex -3.12500000000001 5.41265877365274 4.5
endloop
endfacet
facet normal -0.258819045102521 0.965925826289068 -1.48692383667348e-017
outer loop
vertex -1.61761903189076 6.03703641430668 4.5
vertex -3.12500000000001 5.41265877365274 6.75
vertex -1.61761903189076 6.03703641430668 6.75
endloop
endfacet
facet normal -0.258819045102521 0.965925826289068 -1.48692383667348e-017
outer loop
vertex -1.61761903189076 6.03703641430668 6.75
vertex -6.54232223951112e-015 6.25 4.5
vertex -1.61761903189076 6.03703641430668 4.5
endloop
endfacet
facet normal -3.02977736451995e-016 1.0 1.90739959468598e-018
outer loop
vertex -6.54232223951112e-015 6.25 4.5
vertex -1.61761903189076 6.03703641430668 6.75
vertex -6.54069560572519e-015 6.25 6.75
endloop
endfacet
facet normal 0.965925826289068 0.258819045102521 2.35434914743625e-016
outer loop
vertex 6.03703641430667 1.61761903189076 4.5
vertex 6.24999999999999 1.14810637420064e-015 6.75
vertex 6.24999999999999 1.14810637420064e-015 4.5
endloop
endfacet
facet normal 1.0 3.20799956243289e-016 2.40865299502606e-016
outer loop
vertex 6.24999999999999 1.14810637420064e-015 6.75
vertex 6.03703641430667 1.61761903189076 4.5
vertex 6.03703641430667 1.61761903189076 6.75
endloop
endfacet
facet normal -3.02977736451995e-016 1.0 1.90739959468598e-018
outer loop
vertex -6.54069560572519e-015 6.25 6.75
vertex 1.61761903189075 6.03703641430668 4.5
vertex -6.54232223951112e-015 6.25 4.5
endloop
endfacet
facet normal 0.258819045102521 0.965925826289068 0.0
outer loop
vertex 1.61761903189075 6.03703641430668 4.5
vertex -6.54069560572519e-015 6.25 6.75
vertex 1.61761903189075 6.03703641430668 6.75
endloop
endfacet
facet normal -0.500000000000002 -0.866025403784438 -1.82500443118879e-017
outer loop
vertex 1.55000000000001 2.68467875173176 6.75
vertex 0.802339039817821 2.99437006149611 0.0
vertex 1.55000000000001 2.68467875173176 0.0
endloop
endfacet
facet normal -0.258819045102523 -0.965925826289068 -5.41785980734815e-018
outer loop
vertex 0.802339039817821 2.99437006149611 0.0
vertex 1.55000000000001 2.68467875173176 6.75
vertex 0.802339039817821 2.99437006149611 6.75
endloop
endfacet
facet normal 0.707106781186548 -0.707106781186547 2.07590687375155e-016
outer loop
vertex 4.41941738241592 -4.41941738241592 6.75
vertex 3.125 -5.41265877365274 4.5
vertex 4.41941738241592 -4.41941738241592 4.5
endloop
endfacet
facet normal 0.5 -0.866025403784438 1.13616606882095e-016
outer loop
vertex 3.125 -5.41265877365274 4.5
vertex 4.41941738241592 -4.41941738241592 6.75
vertex 3.125 -5.41265877365274 6.75
endloop
endfacet
facet normal 0.258819045102521 0.965925826289068 0.0
outer loop
vertex 1.61761903189075 6.03703641430668 6.75
vertex 3.12499999999999 5.41265877365274 4.5
vertex 1.61761903189075 6.03703641430668 4.5
endloop
endfacet
facet normal 0.5 0.866025403784439 0.0
outer loop
vertex 3.12499999999999 5.41265877365274 4.5
vertex 1.61761903189075 6.03703641430668 6.75
vertex 3.12499999999999 5.41265877365274 6.75
endloop
endfacet
facet normal -0.258819045102521 -0.965925826289068 0.0
outer loop
vertex -1.61761903189076 -6.03703641430668 6.75
vertex -3.12500000000001 -5.41265877365274 4.5
vertex -1.61761903189076 -6.03703641430668 4.5
endloop
endfacet
facet normal -0.5 -0.866025403784439 -4.44796283106965e-017
outer loop
vertex -3.12500000000001 -5.41265877365274 4.5
vertex -1.61761903189076 -6.03703641430668 6.75
vertex -3.12500000000001 -5.41265877365274 6.75
endloop
endfacet
facet normal 2.22777747391173e-016 -1.0 5.72219878405793e-018
outer loop
vertex -5.77529135625809e-015 -6.25 6.75
vertex -1.61761903189076 -6.03703641430668 4.5
vertex -5.77529135625809e-015 -6.25 4.5
endloop
endfacet
facet normal -0.258819045102521 -0.965925826289068 0.0
outer loop
vertex -1.61761903189076 -6.03703641430668 4.5
vertex -5.77529135625809e-015 -6.25 6.75
vertex -1.61761903189076 -6.03703641430668 6.75
endloop
endfacet
facet normal -0.5 -0.866025403784439 -4.44796283106965e-017
outer loop
vertex -3.12500000000001 -5.41265877365274 6.75
vertex -4.41941738241593 -4.41941738241592 4.5
vertex -3.12500000000001 -5.41265877365274 4.5
endloop
endfacet
facet normal -0.707106781186547 -0.707106781186548 -1.08243306518647e-016
outer loop
vertex -4.41941738241593 -4.41941738241592 4.5
vertex -3.12500000000001 -5.41265877365274 6.75
vertex -4.41941738241593 -4.41941738241592 6.75
endloop
endfacet
facet normal 0.5 0.866025403784439 0.0
outer loop
vertex 3.12499999999999 5.41265877365274 6.75
vertex 4.41941738241591 4.41941738241592 4.5
vertex 3.12499999999999 5.41265877365274 4.5
endloop
endfacet
facet normal 0.707106781186547 0.707106781186548 0.0
outer loop
vertex 4.41941738241591 4.41941738241592 4.5
vertex 3.12499999999999 5.41265877365274 6.75
vertex 4.41941738241591 4.41941738241592 6.75
endloop
endfacet
endsolid P-Stop
